<svg id="kity_svg_6" xmlns="http://www.w3.org/2000/svg" xmlns:xlink="http://www.w3.org/1999/xlink" version="1.1" width="850" height="490" style="background: rgb(251, 251, 251); visibility: visible;" viewBox="0 0 850 490"><defs id="kity_defs_7"><linearGradient id="kity_linearGradient_17" x1="0" y1="0" x2="0" y2="1"><stop id="kity_stop_18" offset="0" stop-color="rgb(255, 255, 255)"></stop><stop id="kity_stop_19" offset="1" stop-color="rgb(204, 204, 204)"></stop></linearGradient><marker id="kity_marker_2" orient="auto" refX="6" refY="0" viewBox="-7 -7 14 14" markerWidth="7" markerHeight="7" markerUnits="userSpaceOnUse"><path id="kity_path_3" fill="rgb(115, 191, 118)" stroke="none" d="M6,0A6,6,0,1,1,-6,0A6,6,0,1,1,6,0"></path></marker></defs><g id="kity_g_8"><g id="minder1" text-rendering="optimize-speed"><g id="minder_connect_group1"><path id="kity_path_31" fill="none" stroke="rgb(115, 191, 118)" stroke-width="1" d="M88.0000004246831,227.50000400096178A84.5,146,0,0,1,172.5000004246831,81.50000400096178"></path><path id="kity_path_39" fill="none" stroke="rgb(115, 191, 118)" stroke-width="1" d="M88.0000004246831,227.50000400096178A84.5,15,0,0,1,172.5000004246831,212.50000400096178"></path><path id="kity_path_55" fill="none" stroke="rgb(115, 191, 118)" stroke-width="1" d="M88.0000004246831,227.50000400096178A84.5,146,0,0,0,172.5000004246831,373.5000040009618"></path><path id="kity_path_63" fill="none" stroke="rgb(115, 191, 118)" stroke-width="1" d="M299.5000004246831,81.50000400096178C307.5000004246831,81.50000400096178,307.5000004246831,81.50000400096178,315.5000004246831,81.50000400096178"></path><path id="kity_path_95" fill="none" stroke="rgb(115, 191, 118)" stroke-width="1" d="M375.5000004246831,81.50000400096178C383.5000004246831,81.50000400096178,383.5000004246831,55.50000400096178,391.5000004246831,55.50000400096178"></path><path id="kity_path_103" fill="none" stroke="rgb(115, 191, 118)" stroke-width="1" d="M375.5000004246831,81.50000400096178C383.5000004246831,81.50000400096178,383.5000004246831,107.50000400096178,391.5000004246831,107.50000400096178"></path><path id="kity_path_110" fill="none" stroke="rgb(115, 191, 118)" stroke-width="1" d="M450.5000004246831,55.50000400096178C458.5000004246831,55.50000400096178,458.5000004246831,29.50000400096178,466.5000004246831,29.50000400096178"></path><path id="kity_path_111" fill="none" stroke="rgb(115, 191, 118)" stroke-width="1" d="M450.5000004246831,55.50000400096178C458.5000004246831,55.50000400096178,458.5000004246831,55.50000400096178,466.5000004246831,55.50000400096178"></path><path id="kity_path_112" fill="none" stroke="rgb(115, 191, 118)" stroke-width="1" d="M450.5000004246831,55.50000400096178C458.5000004246831,55.50000400096178,458.5000004246831,81.50000400096178,466.5000004246831,81.50000400096178"></path><path id="kity_path_114" fill="none" stroke="rgb(115, 191, 118)" stroke-width="1" d="M367.5000004246831,212.50000400096178C375.5000004246831,212.50000400096178,375.5000004246831,167.50000400096178,383.5000004246831,167.50000400096178"></path><path id="kity_path_122" fill="none" stroke="rgb(115, 191, 118)" stroke-width="1" d="M478.5000004246831,167.50000400096178C486.5000004246831,167.50000400096178,486.5000004246831,141.50000400096178,494.5000004246831,141.50000400096178"></path><path id="kity_path_130" fill="none" stroke="rgb(115, 191, 118)" stroke-width="1" d="M478.5000004246831,167.50000400096178C486.5000004246831,167.50000400096178,486.5000004246831,167.50000400096178,494.5000004246831,167.50000400096178"></path><path id="kity_path_138" fill="none" stroke="rgb(115, 191, 118)" stroke-width="1" d="M478.5000004246831,167.50000400096178C486.5000004246831,167.50000400096178,486.5000004246831,193.50000400096178,494.5000004246831,193.50000400096178"></path><path id="kity_path_146" fill="none" stroke="rgb(115, 191, 118)" stroke-width="1" d="M367.5000004246831,212.50000400096178C375.5000004246831,212.50000400096178,375.5000004246831,258.5000040009618,383.5000004246831,258.5000040009618"></path><path id="kity_path_154" fill="none" stroke="rgb(115, 191, 118)" stroke-width="1" d="M479.5000004246831,258.5000040009618C487.5000004246831,258.5000040009618,487.5000004246831,219.50000400096178,495.5000004246831,219.50000400096178"></path><path id="kity_path_162" fill="none" stroke="rgb(115, 191, 118)" stroke-width="1" d="M479.5000004246831,258.5000040009618C487.5000004246831,258.5000040009618,487.5000004246831,245.50000400096178,495.5000004246831,245.50000400096178"></path><path id="kity_path_170" fill="none" stroke="rgb(115, 191, 118)" stroke-width="1" d="M479.5000004246831,258.5000040009618C487.5000004246831,258.5000040009618,487.5000004246831,271.5000040009618,495.5000004246831,271.5000040009618"></path><path id="kity_path_178" fill="none" stroke="rgb(115, 191, 118)" stroke-width="1" d="M479.5000004246831,258.5000040009618C487.5000004246831,258.5000040009618,487.5000004246831,297.5000040009618,495.5000004246831,297.5000040009618"></path><path id="kity_path_186" fill="none" stroke="rgb(115, 191, 118)" stroke-width="1" d="M327.5000004246831,373.5000040009618C335.5000004246831,373.5000040009618,335.5000004246831,331.5000040009618,343.5000004246831,331.5000040009618"></path><path id="kity_path_194" fill="none" stroke="rgb(115, 191, 118)" stroke-width="1" d="M474.5000004246831,331.5000040009618C482.5000004246831,331.5000040009618,482.5000004246831,331.5000040009618,490.5000004246831,331.5000040009618"></path><path id="kity_path_202" fill="none" stroke="rgb(115, 191, 118)" stroke-width="1" d="M327.5000004246831,373.5000040009618C335.5000004246831,373.5000040009618,335.5000004246831,415.5000040009618,343.5000004246831,415.5000040009618"></path><path id="kity_path_210" fill="none" stroke="rgb(115, 191, 118)" stroke-width="1" d="M474.5000004246831,415.5000040009618C482.5000004246831,415.5000040009618,482.5000004246831,370.5000040009618,490.5000004246831,370.5000040009618"></path><path id="kity_path_218" fill="none" stroke="rgb(115, 191, 118)" stroke-width="1" d="M573.5000004246831,370.5000040009618C581.5000004246831,370.5000040009618,581.5000004246831,357.5000040009618,589.5000004246831,357.5000040009618"></path><path id="kity_path_226" fill="none" stroke="rgb(115, 191, 118)" stroke-width="1" d="M573.5000004246831,370.5000040009618C581.5000004246831,370.5000040009618,581.5000004246831,383.5000040009618,589.5000004246831,383.5000040009618"></path><path id="kity_path_234" fill="none" stroke="rgb(115, 191, 118)" stroke-width="1" d="M474.5000004246831,415.5000040009618C482.5000004246831,415.5000040009618,482.5000004246831,422.5000040009618,490.5000004246831,422.5000040009618"></path><path id="kity_path_242" fill="none" stroke="rgb(115, 191, 118)" stroke-width="1" d="M574.5000004246831,422.5000040009618C582.5000004246831,422.5000040009618,582.5000004246831,409.5000040009618,590.5000004246831,409.5000040009618"></path><path id="kity_path_250" fill="none" stroke="rgb(115, 191, 118)" stroke-width="1" d="M574.5000004246831,422.5000040009618C582.5000004246831,422.5000040009618,582.5000004246831,435.5000040009618,590.5000004246831,435.5000040009618"></path><path id="kity_path_258" fill="none" stroke="rgb(115, 191, 118)" stroke-width="1" d="M474.5000004246831,415.5000040009618C482.5000004246831,415.5000040009618,482.5000004246831,461.5000040009618,490.5000004246831,461.5000040009618"></path><path id="kity_path_266" fill="none" stroke="rgb(115, 191, 118)" stroke-width="1" d="M550.5000004246831,461.5000040009618C558.5000004246831,461.5000040009618,558.5000004246831,461.5000040009618,566.5000004246831,461.5000040009618"></path></g><g id="minder_node1"><path id="node_outline1" fill="rgb(115, 191, 118)" stroke="rgb(115, 191, 118)" d="M24.500000424683094,213.50000400096178h127a5,5,0,0,1,5,5v18a5,5,0,0,1,-5,5h-127a5,5,0,0,1,-5,-5v-18a5,5,0,0,1,5,-5z" stroke-width="3"></path><g id="node_text1" fill="white"><text id="kity_text_22" text-rendering="inherit" font-size="16" dy=".8em" y="217.100003965199" x="31.500000424683094">农业育种模型库</text></g></g><g id="kity_g_14" display="none"><path id="kity_path_15" fill="rgba(0, 92, 153, 0.5)" stroke="none" d="M563.5000004246831,86.50000400096178h69v15h-69z"></path><path id="kity_path_16" fill="none" stroke="rgb(0, 76, 128)" d="M563.5000004246831,101.50000400096178L632.5000004246831,101.50000400096178" stroke-width="1"></path></g><g id="minder_node2"><g id="node_expander1" style="cursor: pointer;"><path id="kity_path_36" fill="white" stroke="gray" d="M173.50000245124102,81.50000182539225A6,6,0,1,1,161.50000245124102,81.50000182539225A6,6,0,1,1,173.50000245124102,81.50000182539225"></path><path id="kity_path_37" fill="none" stroke="gray" d="M163.00000245124102,81.50000182539225L172.00000245124102,81.50000182539225"></path></g><path id="node_outline2" fill="rgb(238, 246, 238)" stroke="rgb(115, 191, 118)" d="M177.50000285357237,68.50000182539225h119a3,3,0,0,1,3,3v20a3,3,0,0,1,-3,3h-119a3,3,0,0,1,-3,-3v-20a3,3,0,0,1,3,-3z" stroke-width="1"></path><g id="node_text2" fill="black"><text id="kity_text_33" text-rendering="inherit" font-size="14" dy=".8em" y="72.40000179409981" x="194.50000285357237">通用机器学习</text></g></g><g id="minder_node3"><g id="node_expander2" style="cursor: pointer;"><path id="kity_path_44" fill="white" stroke="gray" d="M173.50000245124102,212.50000377744436A6,6,0,1,1,161.50000245124102,212.50000377744436A6,6,0,1,1,173.50000245124102,212.50000377744436"></path><path id="kity_path_45" fill="none" stroke="gray" d="M163.00000245124102,212.50000377744436L172.00000245124102,212.50000377744436"></path></g><path id="node_outline3" fill="rgb(238, 246, 238)" stroke="rgb(115, 191, 118)" d="M177.50000285357237,199.50000377744436h187a3,3,0,0,1,3,3v20a3,3,0,0,1,-3,3h-187a3,3,0,0,1,-3,-3v-20a3,3,0,0,1,3,-3z" stroke-width="1"></path><g id="node_text3" fill="black"><text id="kity_text_41" text-rendering="inherit" font-size="14" dy=".8em" y="203.40000374615192" x="194.50000285357237">多模态机器学习(OMML)</text></g></g><g id="minder_node5"><g id="node_expander4" style="cursor: pointer;"><path id="kity_path_60" fill="white" stroke="gray" d="M173.50000245124102,373.5000061765313A6,6,0,1,1,161.50000245124102,373.5000061765313A6,6,0,1,1,173.50000245124102,373.5000061765313"></path><path id="kity_path_61" fill="none" stroke="gray" d="M163.00000245124102,373.5000061765313L172.00000245124102,373.5000061765313"></path></g><path id="node_outline5" fill="rgb(238, 246, 238)" stroke="rgb(115, 191, 118)" d="M177.50000285357237,360.5000061765313h147a3,3,0,0,1,3,3v20a3,3,0,0,1,-3,3h-147a3,3,0,0,1,-3,-3v-20a3,3,0,0,1,3,-3z" stroke-width="1"></path><g id="node_text5" fill="black"><text id="kity_text_57" text-rendering="inherit" font-size="14" dy=".8em" y="364.4000061452389" x="194.50000285357237">农业育种机器学习</text></g></g><g id="minder_node6"><g id="node_expander5" style="cursor: pointer;"><path id="kity_path_68" fill="white" stroke="gray" d="M315.5000045672059,81.50000182539225A6,6,0,1,1,303.5000045672059,81.50000182539225A6,6,0,1,1,315.5000045672059,81.50000182539225"></path><path id="kity_path_69" fill="none" stroke="gray" d="M305.0000045672059,81.50000182539225L314.0000045672059,81.50000182539225"></path></g><path id="node_outline6" fill="none" stroke="none" d="M320.5000047311187,72.50000182539225h50a5,5,0,0,1,5,5v8a5,5,0,0,1,-5,5h-50a5,5,0,0,1,-5,-5v-8a5,5,0,0,1,5,-5z" stroke-width="3"></path><g id="node_text6" fill="black"><text id="kity_text_65" text-rendering="inherit" font-size="12" dy=".8em" y="73.70000179857016" x="320.5000047311187">数据处理</text></g></g><g id="minder_node10" opacity="1"><g id="node_expander9" style="cursor: pointer;"><path id="kity_path_100" fill="white" stroke="gray" d="M391.50000569969416,55.500001437962055A6,6,0,1,1,379.50000569969416,55.500001437962055A6,6,0,1,1,391.50000569969416,55.500001437962055"></path><path id="kity_path_101" fill="none" stroke="gray" d="M381.00000569969416,55.500001437962055L390.00000569969416,55.500001437962055"></path></g><path id="node_outline10" fill="none" stroke="none" d="M396.50000586360693,46.500001437962055h49a5,5,0,0,1,5,5v8a5,5,0,0,1,-5,5h-49a5,5,0,0,1,-5,-5v-8a5,5,0,0,1,5,-5z" stroke-width="3"></path><g id="node_text10" fill="black"><text id="kity_text_97" text-rendering="inherit" font-size="12" dy=".8em" y="47.700001411139965" x="396.50000586360693">表示学习</text></g></g><g id="minder_node11" opacity="1"><g id="node_expander10" style="cursor: pointer;" display="none"><path id="kity_path_108" fill="white" stroke="gray" d="M391.50000569969416,107.50000221282244A6,6,0,1,1,379.50000569969416,107.50000221282244A6,6,0,1,1,391.50000569969416,107.50000221282244"></path><path id="kity_path_109" fill="none" stroke="gray"></path></g><path id="node_outline11" fill="none" stroke="none" d="M396.50000586360693,98.50000221282244h49a5,5,0,0,1,5,5v8a5,5,0,0,1,-5,5h-49a5,5,0,0,1,-5,-5v-8a5,5,0,0,1,5,-5z" stroke-width="3"></path><g id="node_text11" fill="black"><text id="kity_text_105" text-rendering="inherit" font-size="12" dy=".8em" y="99.70000218600035" x="396.50000586360693">数据增广</text></g></g><g id="kity_g_12" display="none"><path id="kity_path_13" fill="none" stroke="rgb(66, 94, 112)" d="M568.5000004246831,106.50000400096178h59a5,5,0,0,1,5,5v12a5,5,0,0,1,-5,5h-59a5,5,0,0,1,-5,-5v-12a5,5,0,0,1,5,-5z" stroke-width="5"></path></g><g id="minder_node9" opacity="1"><g id="node_expander8" style="cursor: pointer;" display="none"><path id="kity_path_92" fill="white" stroke="gray" d="M466.50000681728125,29.500001050531864A6,6,0,1,1,454.50000681728125,29.500001050531864A6,6,0,1,1,466.50000681728125,29.500001050531864"></path><path id="kity_path_93" fill="none" stroke="gray"></path></g><path id="node_outline9" fill="none" stroke="none" d="M471.500006981194,20.500001050531864h61a5,5,0,0,1,5,5v8a5,5,0,0,1,-5,5h-61a5,5,0,0,1,-5,-5v-8a5,5,0,0,1,5,-5z" stroke-width="3"></path><g id="node_text9" fill="black"><text id="kity_text_89" text-rendering="inherit" font-size="12" dy=".8em" y="21.700001023709774" x="471.500006981194">自动编码器</text></g></g><g id="minder_node8" opacity="1"><g id="node_expander7" style="cursor: pointer;" display="none"><path id="kity_path_84" fill="white" stroke="gray" d="M466.50000681728125,55.500001437962055A6,6,0,1,1,454.50000681728125,55.500001437962055A6,6,0,1,1,466.50000681728125,55.500001437962055"></path><path id="kity_path_85" fill="none" stroke="gray"></path></g><path id="node_outline8" fill="none" stroke="none" d="M471.500006981194,46.500001437962055h74a5,5,0,0,1,5,5v8a5,5,0,0,1,-5,5h-74a5,5,0,0,1,-5,-5v-8a5,5,0,0,1,5,-5z" stroke-width="3"></path><g id="node_text8" fill="black"><text id="kity_text_81" text-rendering="inherit" font-size="12" dy=".8em" y="47.700001411139965" x="471.500006981194">线性判别分析</text></g></g><g id="minder_node7" opacity="1"><g id="node_expander6" style="cursor: pointer;" display="none"><path id="kity_path_76" fill="white" stroke="gray" d="M466.50000681728125,81.50000182539225A6,6,0,1,1,454.50000681728125,81.50000182539225A6,6,0,1,1,466.50000681728125,81.50000182539225"></path><path id="kity_path_77" fill="none" stroke="gray"></path></g><path id="node_outline7" fill="none" stroke="none" d="M471.500006981194,72.50000182539225h61a5,5,0,0,1,5,5v8a5,5,0,0,1,-5,5h-61a5,5,0,0,1,-5,-5v-8a5,5,0,0,1,5,-5z" stroke-width="3"></path><g id="node_text7" fill="black"><text id="kity_text_73" text-rendering="inherit" font-size="12" dy=".8em" y="73.70000179857016" x="471.500006981194">主成分分析</text></g></g><g id="minder_node12"><g id="node_expander11" style="cursor: pointer;"><path id="kity_path_119" fill="white" stroke="gray" d="M383.50000558048487,167.5000031068921A6,6,0,1,1,371.50000558048487,167.5000031068921A6,6,0,1,1,383.50000558048487,167.5000031068921"></path><path id="kity_path_120" fill="none" stroke="gray" d="M373.00000558048487,167.5000031068921L382.00000558048487,167.5000031068921"></path></g><path id="node_outline12" fill="none" stroke="none" d="M388.50000574439764,158.5000031068921h85a5,5,0,0,1,5,5v8a5,5,0,0,1,-5,5h-85a5,5,0,0,1,-5,-5v-8a5,5,0,0,1,5,-5z" stroke-width="3"></path><g id="node_text12" fill="black"><text id="kity_text_116" text-rendering="inherit" font-size="12" dy=".8em" y="159.70000308007002" x="388.50000574439764">多模态分类模型</text></g></g><g id="minder_node13"><g id="node_expander12" style="cursor: pointer;" display="none"><path id="kity_path_127" fill="white" stroke="gray" d="M494.50000723451376,141.50000271946192A6,6,0,1,1,482.50000723451376,141.50000271946192A6,6,0,1,1,494.50000723451376,141.50000271946192"></path><path id="kity_path_128" fill="none" stroke="gray"></path></g><path id="node_outline13" fill="none" stroke="none" d="M499.50000739842653,132.50000271946192h170a5,5,0,0,1,5,5v8a5,5,0,0,1,-5,5h-170a5,5,0,0,1,-5,-5v-8a5,5,0,0,1,5,-5z" stroke-width="3"></path><g id="node_text13" fill="black"><text id="kity_text_124" text-rendering="inherit" font-size="12" dy=".8em" y="133.70000269263983" x="499.50000739842653">CMML：综合半监督多模态学习</text></g></g><g id="minder_node14" opacity="1"><g id="node_expander13" style="cursor: pointer;" display="none"><path id="kity_path_135" fill="white" stroke="gray" d="M494.50000723451376,167.5000031068921A6,6,0,1,1,482.50000723451376,167.5000031068921A6,6,0,1,1,494.50000723451376,167.5000031068921"></path><path id="kity_path_136" fill="none" stroke="gray"></path></g><path id="node_outline14" fill="none" stroke="none" d="M499.50000739842653,158.5000031068921h253a5,5,0,0,1,5,5v8a5,5,0,0,1,-5,5h-253a5,5,0,0,1,-5,-5v-8a5,5,0,0,1,5,-5z" stroke-width="3"></path><g id="node_text14" fill="black"><text id="kity_text_132" text-rendering="inherit" font-size="12" dy=".8em" y="159.70000308007002" x="499.50000739842653">LMF：基于模态特定因子的低秩多模态融合分类</text></g></g><g id="minder_node15"><g id="node_expander14" style="cursor: pointer;" display="none"><path id="kity_path_143" fill="white" stroke="gray" d="M494.50000723451376,193.5000034943223A6,6,0,1,1,482.50000723451376,193.5000034943223A6,6,0,1,1,494.50000723451376,193.5000034943223"></path><path id="kity_path_144" fill="none" stroke="gray"></path></g><path id="node_outline15" fill="none" stroke="none" d="M499.50000739842653,184.5000034943223h183a5,5,0,0,1,5,5v8a5,5,0,0,1,-5,5h-183a5,5,0,0,1,-5,-5v-8a5,5,0,0,1,5,-5z" stroke-width="3"></path><g id="node_text15" fill="black"><text id="kity_text_140" text-rendering="inherit" font-size="12" dy=".8em" y="185.7000034675002" x="499.50000739842653">TMC：可信预测的多模态融合策略</text></g></g><g id="minder_node16"><g id="node_expander15" style="cursor: pointer;"><path id="kity_path_151" fill="white" stroke="gray" d="M383.50000558048487,258.5000044628978A6,6,0,1,1,371.50000558048487,258.5000044628978A6,6,0,1,1,383.50000558048487,258.5000044628978"></path><path id="kity_path_152" fill="none" stroke="gray" d="M373.00000558048487,258.5000044628978L382.00000558048487,258.5000044628978"></path></g><path id="node_outline16" fill="none" stroke="none" d="M388.50000574439764,249.50000446289778h86a5,5,0,0,1,5,5v8a5,5,0,0,1,-5,5h-86a5,5,0,0,1,-5,-5v-8a5,5,0,0,1,5,-5z" stroke-width="3"></path><g id="node_text16" fill="black"><text id="kity_text_148" text-rendering="inherit" font-size="12" dy=".8em" y="250.7000044360757" x="388.50000574439764">跨模态检索模型</text></g></g><g id="minder_node17"><g id="node_expander16" style="cursor: pointer;" display="none"><path id="kity_path_159" fill="white" stroke="gray" d="M495.5000072494149,219.5000038817525A6,6,0,1,1,483.5000072494149,219.5000038817525A6,6,0,1,1,495.5000072494149,219.5000038817525"></path><path id="kity_path_160" fill="none" stroke="gray"></path></g><path id="node_outline17" fill="none" stroke="none" d="M500.5000074133277,210.5000038817525h200a5,5,0,0,1,5,5v8a5,5,0,0,1,-5,5h-200a5,5,0,0,1,-5,-5v-8a5,5,0,0,1,5,-5z" stroke-width="3"></path><g id="node_text17" fill="black"><text id="kity_text_156" text-rendering="inherit" font-size="12" dy=".8em" y="211.7000038549304" x="500.5000074133277">VSE++ ：为图像和文本提取全局特征</text></g></g><g id="minder_node18"><g id="node_expander17" style="cursor: pointer;" display="none"><path id="kity_path_167" fill="white" stroke="gray" d="M495.5000072494149,245.50000426918268A6,6,0,1,1,483.5000072494149,245.50000426918268A6,6,0,1,1,495.5000072494149,245.50000426918268"></path><path id="kity_path_168" fill="none" stroke="gray"></path></g><path id="node_outline18" fill="none" stroke="none" d="M500.5000074133277,236.50000426918268h274a5,5,0,0,1,5,5v8a5,5,0,0,1,-5,5h-274a5,5,0,0,1,-5,-5v-8a5,5,0,0,1,5,-5z" stroke-width="3"></path><g id="node_text18" fill="black"><text id="kity_text_164" text-rendering="inherit" font-size="12" dy=".8em" y="237.7000042423606" x="500.5000074133277">SCAN：从图像区域和文本单词中学习图文匹配打分</text></g></g><g id="minder_node19"><g id="node_expander18" style="cursor: pointer;" display="none"><path id="kity_path_175" fill="white" stroke="gray" d="M495.5000072494149,271.5000046566129A6,6,0,1,1,483.5000072494149,271.5000046566129A6,6,0,1,1,495.5000072494149,271.5000046566129"></path><path id="kity_path_176" fill="none" stroke="gray"></path></g><path id="node_outline19" fill="none" stroke="none" d="M500.5000074133277,262.5000046566129h324a5,5,0,0,1,5,5v8a5,5,0,0,1,-5,5h-324a5,5,0,0,1,-5,-5v-8a5,5,0,0,1,5,-5z" stroke-width="3"></path><g id="node_text19" fill="black"><text id="kity_text_172" text-rendering="inherit" font-size="12" dy=".8em" y="263.7000046297908" x="500.5000074133277">IMRAM：跨模态图像-文本检索的迭代匹配与递归注意力机制</text></g></g><g id="minder_node20"><g id="node_expander19" style="cursor: pointer;" display="none"><path id="kity_path_183" fill="white" stroke="gray" d="M495.5000072494149,297.50000504404306A6,6,0,1,1,483.5000072494149,297.50000504404306A6,6,0,1,1,495.5000072494149,297.50000504404306"></path><path id="kity_path_184" fill="none" stroke="gray"></path></g><path id="node_outline20" fill="none" stroke="none" d="M500.5000074133277,288.50000504404306h236a5,5,0,0,1,5,5v8a5,5,0,0,1,-5,5h-236a5,5,0,0,1,-5,-5v-8a5,5,0,0,1,5,-5z" stroke-width="3"></path><g id="node_text20" fill="black"><text id="kity_text_180" text-rendering="inherit" font-size="12" dy=".8em" y="289.700005017221" x="500.5000074133277">SGRAF：图像-文本匹配的相似性推理和过滤</text></g></g><g id="minder_node21"><g id="node_expander20" style="cursor: pointer;"><path id="kity_path_191" fill="white" stroke="gray" d="M343.5000049844384,331.50000555068254A6,6,0,1,1,331.5000049844384,331.50000555068254A6,6,0,1,1,343.5000049844384,331.50000555068254"></path><path id="kity_path_192" fill="none" stroke="gray" d="M333.0000049844384,331.50000555068254L342.0000049844384,331.50000555068254"></path></g><path id="node_outline21" fill="none" stroke="none" d="M348.5000051483512,322.50000555068254h121a5,5,0,0,1,5,5v8a5,5,0,0,1,-5,5h-121a5,5,0,0,1,-5,-5v-8a5,5,0,0,1,5,-5z" stroke-width="3"></path><g id="node_text21" fill="black"><text id="kity_text_188" text-rendering="inherit" font-size="12" dy=".8em" y="323.70000552386045" x="348.5000051483512">应用于基因的机器学习</text></g></g><g id="minder_node22"><g id="node_expander21" style="cursor: pointer;" display="none"><path id="kity_path_199" fill="white" stroke="gray" d="M490.5000071749091,331.50000555068254A6,6,0,1,1,478.5000071749091,331.50000555068254A6,6,0,1,1,490.5000071749091,331.50000555068254"></path><path id="kity_path_200" fill="none" stroke="gray"></path></g><path id="node_outline22" fill="none" stroke="none" d="M495.5000073388219,322.50000555068254h164a5,5,0,0,1,5,5v8a5,5,0,0,1,-5,5h-164a5,5,0,0,1,-5,-5v-8a5,5,0,0,1,5,-5z" stroke-width="3"></path><g id="node_text22" fill="black"><text id="kity_text_196" text-rendering="inherit" font-size="12" dy=".8em" y="323.70000552386045" x="495.5000073388219">CropGBM全基因组选择工具箱</text></g></g><g id="minder_node23"><g id="node_expander22" style="cursor: pointer;"><path id="kity_path_207" fill="white" stroke="gray" d="M343.5000049844384,415.5000068023801A6,6,0,1,1,331.5000049844384,415.5000068023801A6,6,0,1,1,343.5000049844384,415.5000068023801"></path><path id="kity_path_208" fill="none" stroke="gray" d="M333.0000049844384,415.5000068023801L342.0000049844384,415.5000068023801"></path></g><path id="node_outline23" fill="none" stroke="none" d="M348.5000051483512,406.5000068023801h121a5,5,0,0,1,5,5v8a5,5,0,0,1,-5,5h-121a5,5,0,0,1,-5,-5v-8a5,5,0,0,1,5,-5z" stroke-width="3"></path><g id="node_text23" fill="black"><text id="kity_text_204" text-rendering="inherit" font-size="12" dy=".8em" y="407.700006775558" x="348.5000051483512">应用于表型的机器学习</text></g></g><g id="minder_node24"><g id="node_expander23" style="cursor: pointer;"><path id="kity_path_215" fill="white" stroke="gray" d="M490.5000071749091,370.50000613182783A6,6,0,1,1,478.5000071749091,370.50000613182783A6,6,0,1,1,490.5000071749091,370.50000613182783"></path><path id="kity_path_216" fill="none" stroke="gray" d="M480.0000071749091,370.50000613182783L489.0000071749091,370.50000613182783"></path></g><path id="node_outline24" fill="none" stroke="none" d="M495.5000073388219,361.50000613182783h73a5,5,0,0,1,5,5v8a5,5,0,0,1,-5,5h-73a5,5,0,0,1,-5,-5v-8a5,5,0,0,1,5,-5z" stroke-width="3"></path><g id="node_text24" fill="black"><text id="kity_text_212" text-rendering="inherit" font-size="12" dy=".8em" y="362.70000610500574" x="495.5000073388219">目标检测模型</text></g></g><g id="minder_node25"><g id="node_expander24" style="cursor: pointer;" display="none"><path id="kity_path_223" fill="white" stroke="gray" d="M589.5000086501241,357.50000593811274A6,6,0,1,1,577.5000086501241,357.50000593811274A6,6,0,1,1,589.5000086501241,357.50000593811274"></path><path id="kity_path_224" fill="none" stroke="gray"></path></g><path id="node_outline25" fill="none" stroke="none" d="M594.5000088140368,348.50000593811274h78a5,5,0,0,1,5,5v8a5,5,0,0,1,-5,5h-78a5,5,0,0,1,-5,-5v-8a5,5,0,0,1,5,-5z" stroke-width="3"></path><g id="node_text25" fill="black"><text id="kity_text_220" text-rendering="inherit" font-size="12" dy=".8em" y="349.70000591129065" x="594.5000088140368">Faster R-CNN</text></g></g><g id="minder_node26"><g id="node_expander25" style="cursor: pointer;" display="none"><path id="kity_path_231" fill="white" stroke="gray" d="M589.5000086501241,383.5000063255429A6,6,0,1,1,577.5000086501241,383.5000063255429A6,6,0,1,1,589.5000086501241,383.5000063255429"></path><path id="kity_path_232" fill="none" stroke="gray"></path></g><path id="node_outline26" fill="none" stroke="none" d="M594.5000088140368,374.5000063255429h47a5,5,0,0,1,5,5v8a5,5,0,0,1,-5,5h-47a5,5,0,0,1,-5,-5v-8a5,5,0,0,1,5,-5z" stroke-width="3"></path><g id="node_text26" fill="black"><text id="kity_text_228" text-rendering="inherit" font-size="12" dy=".8em" y="375.70000629872084" x="594.5000088140368">YOLOv7</text></g></g><g id="minder_node27"><g id="node_expander26" style="cursor: pointer;"><path id="kity_path_239" fill="white" stroke="gray" d="M490.5000071749091,422.5000069066882A6,6,0,1,1,478.5000071749091,422.5000069066882A6,6,0,1,1,490.5000071749091,422.5000069066882"></path><path id="kity_path_240" fill="none" stroke="gray" d="M480.0000071749091,422.5000069066882L489.0000071749091,422.5000069066882"></path></g><path id="node_outline27" fill="none" stroke="none" d="M495.5000073388219,413.5000069066882h74a5,5,0,0,1,5,5v8a5,5,0,0,1,-5,5h-74a5,5,0,0,1,-5,-5v-8a5,5,0,0,1,5,-5z" stroke-width="3"></path><g id="node_text27" fill="black"><text id="kity_text_236" text-rendering="inherit" font-size="12" dy=".8em" y="414.7000068798661" x="495.5000073388219">语义分割模型</text></g></g><g id="minder_node28"><g id="node_expander27" style="cursor: pointer;" display="none"><path id="kity_path_247" fill="white" stroke="gray" d="M590.5000086650252,409.5000067129731A6,6,0,1,1,578.5000086650252,409.5000067129731A6,6,0,1,1,590.5000086650252,409.5000067129731"></path><path id="kity_path_248" fill="none" stroke="gray"></path></g><path id="node_outline28" fill="none" stroke="none" d="M595.500008828938,400.5000067129731h73a5,5,0,0,1,5,5v8a5,5,0,0,1,-5,5h-73a5,5,0,0,1,-5,-5v-8a5,5,0,0,1,5,-5z" stroke-width="3"></path><g id="node_text28" fill="black"><text id="kity_text_244" text-rendering="inherit" font-size="12" dy=".8em" y="401.700006686151" x="595.500008828938">DeepLabv3+</text></g></g><g id="minder_node29"><g id="node_expander28" style="cursor: pointer;" display="none"><path id="kity_path_255" fill="white" stroke="gray" d="M590.5000086650252,435.5000071004033A6,6,0,1,1,578.5000086650252,435.5000071004033A6,6,0,1,1,590.5000086650252,435.5000071004033"></path><path id="kity_path_256" fill="none" stroke="gray"></path></g><path id="node_outline29" fill="none" stroke="none" d="M595.500008828938,426.5000071004033h38a5,5,0,0,1,5,5v8a5,5,0,0,1,-5,5h-38a5,5,0,0,1,-5,-5v-8a5,5,0,0,1,5,-5z" stroke-width="3"></path><g id="node_text29" fill="black"><text id="kity_text_252" text-rendering="inherit" font-size="12" dy=".8em" y="427.7000070735812" x="595.500008828938">HRNet</text></g></g><g id="minder_node30"><g id="node_expander29" style="cursor: pointer;"><path id="kity_path_263" fill="white" stroke="gray" d="M490.5000071749091,461.5000074878335A6,6,0,1,1,478.5000071749091,461.5000074878335A6,6,0,1,1,490.5000071749091,461.5000074878335"></path><path id="kity_path_264" fill="none" stroke="gray" d="M480.0000071749091,461.5000074878335L489.0000071749091,461.5000074878335"></path></g><path id="node_outline30" fill="none" stroke="none" d="M495.5000073388219,452.5000074878335h50a5,5,0,0,1,5,5v8a5,5,0,0,1,-5,5h-50a5,5,0,0,1,-5,-5v-8a5,5,0,0,1,5,-5z" stroke-width="3"></path><g id="node_text30" fill="black"><text id="kity_text_260" text-rendering="inherit" font-size="12" dy=".8em" y="453.7000074610114" x="495.5000073388219">追踪模型</text></g></g><g id="minder_node31"><g id="node_expander30" style="cursor: pointer;" display="none"><path id="kity_path_271" fill="white" stroke="gray" d="M566.5000083073974,461.5000074878335A6,6,0,1,1,554.5000083073974,461.5000074878335A6,6,0,1,1,566.5000083073974,461.5000074878335"></path><path id="kity_path_272" fill="none" stroke="gray"></path></g><path id="node_outline31" fill="none" stroke="none" d="M571.5000084713101,452.5000074878335h71a5,5,0,0,1,5,5v8a5,5,0,0,1,-5,5h-71a5,5,0,0,1,-5,-5v-8a5,5,0,0,1,5,-5z" stroke-width="3"></path><g id="node_text31" fill="black"><text id="kity_text_268" text-rendering="inherit" font-size="12" dy=".8em" y="453.7000074610114" x="571.5000084713101">SiamRPN++</text></g></g></g></g></svg>