<svg id="kity_svg_6" xmlns="http://www.w3.org/2000/svg" xmlns:xlink="http://www.w3.org/1999/xlink" version="1.1" width="855" height="788" style="background: rgb(251, 251, 251); visibility: visible;" viewBox="0 0 855 788"><defs id="kity_defs_7"><linearGradient id="kity_linearGradient_17" x1="0" y1="0" x2="0" y2="1"><stop id="kity_stop_18" offset="0" stop-color="rgb(255, 255, 255)"></stop><stop id="kity_stop_19" offset="1" stop-color="rgb(204, 204, 204)"></stop></linearGradient><marker id="kity_marker_2" orient="auto" refX="6" refY="0" viewBox="-7 -7 14 14" markerWidth="7" markerHeight="7" markerUnits="userSpaceOnUse"><path id="kity_path_3" fill="rgb(115, 191, 118)" stroke="none" d="M6,0A6,6,0,1,1,-6,0A6,6,0,1,1,6,0"></path></marker></defs><g id="kity_g_8"><g id="minder1" text-rendering="optimize-speed"><g id="minder_connect_group1"><path id="kity_path_31" fill="none" stroke="rgb(115, 191, 118)" stroke-width="1" d="M89.00000771135092,354.5000034496188A84.5,253,0,0,1,173.50000771135092,101.50000344961882"></path><path id="kity_path_33" fill="none" stroke="rgb(115, 191, 118)" stroke-width="1" d="M300.5000077113509,101.50000344961882C308.5000077113509,101.50000344961882,308.5000077113509,101.50000344961882,316.5000077113509,101.50000344961882"></path><path id="kity_path_35" fill="none" stroke="rgb(115, 191, 118)" stroke-width="1" d="M376.5000077113509,101.50000344961882C384.5000077113509,101.50000344961882,384.5000077113509,54.500003449618816,392.5000077113509,54.500003449618816"></path><path id="kity_path_37" fill="none" stroke="rgb(115, 191, 118)" stroke-width="1" d="M451.5000077113509,54.500003449618816C459.5000077113509,54.500003449618816,459.5000077113509,28.500003449618816,467.5000077113509,28.500003449618816"></path><path id="kity_path_39" fill="none" stroke="rgb(115, 191, 118)" stroke-width="1" d="M451.5000077113509,54.500003449618816C459.5000077113509,54.500003449618816,459.5000077113509,54.500003449618816,467.5000077113509,54.500003449618816"></path><path id="kity_path_41" fill="none" stroke="rgb(115, 191, 118)" stroke-width="1" d="M451.5000077113509,54.500003449618816C459.5000077113509,54.500003449618816,459.5000077113509,80.50000344961882,467.5000077113509,80.50000344961882"></path><path id="kity_path_43" fill="none" stroke="rgb(115, 191, 118)" stroke-width="1" d="M376.5000077113509,101.50000344961882C384.5000077113509,101.50000344961882,384.5000077113509,144.50000344961882,392.5000077113509,144.50000344961882"></path><path id="kity_path_45" fill="none" stroke="rgb(115, 191, 118)" stroke-width="1" d="M476.5000077113509,144.50000344961882C484.5000077113509,144.50000344961882,484.5000077113509,110.50000344961882,492.5000077113509,110.50000344961882"></path><path id="kity_path_47" fill="none" stroke="rgb(115, 191, 118)" stroke-width="1" d="M476.5000077113509,144.50000344961882C484.5000077113509,144.50000344961882,484.5000077113509,144.50000344961882,492.5000077113509,144.50000344961882"></path><path id="kity_path_49" fill="none" stroke="rgb(115, 191, 118)" stroke-width="1" d="M476.5000077113509,144.50000344961882C484.5000077113509,144.50000344961882,484.5000077113509,178.50000344961882,492.5000077113509,178.50000344961882"></path><path id="kity_path_51" fill="none" stroke="rgb(115, 191, 118)" stroke-width="1" d="M89.00000771135092,354.5000034496188A84.5,6,0,0,1,173.50000771135092,348.5000034496188"></path><path id="kity_path_53" fill="none" stroke="rgb(115, 191, 118)" stroke-width="1" d="M338.5000077113509,348.5000034496188C346.5000077113509,348.5000034496188,346.5000077113509,242.50000344961882,354.5000077113509,242.50000344961882"></path><path id="kity_path_55" fill="none" stroke="rgb(115, 191, 118)" stroke-width="1" d="M474.5000077113509,242.50000344961882C482.5000077113509,242.50000344961882,482.5000077113509,216.50000344961882,490.5000077113509,216.50000344961882"></path><path id="kity_path_57" fill="none" stroke="rgb(115, 191, 118)" stroke-width="1" d="M474.5000077113509,242.50000344961882C482.5000077113509,242.50000344961882,482.5000077113509,242.50000344961882,490.5000077113509,242.50000344961882"></path><path id="kity_path_59" fill="none" stroke="rgb(115, 191, 118)" stroke-width="1" d="M474.5000077113509,242.50000344961882C482.5000077113509,242.50000344961882,482.5000077113509,268.5000034496188,490.5000077113509,268.5000034496188"></path><path id="kity_path_61" fill="none" stroke="rgb(115, 191, 118)" stroke-width="1" d="M338.5000077113509,348.5000034496188C346.5000077113509,348.5000034496188,346.5000077113509,333.5000034496188,354.5000077113509,333.5000034496188"></path><path id="kity_path_63" fill="none" stroke="rgb(115, 191, 118)" stroke-width="1" d="M475.5000077113509,333.5000034496188C483.5000077113509,333.5000034496188,483.5000077113509,294.5000034496188,491.5000077113509,294.5000034496188"></path><path id="kity_path_65" fill="none" stroke="rgb(115, 191, 118)" stroke-width="1" d="M475.5000077113509,333.5000034496188C483.5000077113509,333.5000034496188,483.5000077113509,320.5000034496188,491.5000077113509,320.5000034496188"></path><path id="kity_path_67" fill="none" stroke="rgb(115, 191, 118)" stroke-width="1" d="M475.5000077113509,333.5000034496188C483.5000077113509,333.5000034496188,483.5000077113509,346.5000034496188,491.5000077113509,346.5000034496188"></path><path id="kity_path_69" fill="none" stroke="rgb(115, 191, 118)" stroke-width="1" d="M475.5000077113509,333.5000034496188C483.5000077113509,333.5000034496188,483.5000077113509,372.5000034496188,491.5000077113509,372.5000034496188"></path><path id="kity_path_71" fill="none" stroke="rgb(115, 191, 118)" stroke-width="1" d="M338.5000077113509,348.5000034496188C346.5000077113509,348.5000034496188,346.5000077113509,411.5000034496188,354.5000077113509,411.5000034496188"></path><path id="kity_path_73" fill="none" stroke="rgb(115, 191, 118)" stroke-width="1" d="M462.5000077113509,411.5000034496188C470.5000077113509,411.5000034496188,470.5000077113509,398.5000034496188,478.5000077113509,398.5000034496188"></path><path id="kity_path_75" fill="none" stroke="rgb(115, 191, 118)" stroke-width="1" d="M462.5000077113509,411.5000034496188C470.5000077113509,411.5000034496188,470.5000077113509,424.5000034496188,478.5000077113509,424.5000034496188"></path><path id="kity_path_77" fill="none" stroke="rgb(115, 191, 118)" stroke-width="1" d="M338.5000077113509,348.5000034496188C346.5000077113509,348.5000034496188,346.5000077113509,454.5000034496188,354.5000077113509,454.5000034496188"></path><path id="kity_path_79" fill="none" stroke="rgb(115, 191, 118)" stroke-width="1" d="M510.5000077113509,454.5000034496188C518.5000077113509,454.5000034496188,518.5000077113509,454.5000034496188,526.5000077113509,454.5000034496188"></path><path id="kity_path_81" fill="none" stroke="rgb(115, 191, 118)" stroke-width="1" d="M89.00000771135092,354.5000034496188A84.5,254,0,0,0,173.50000771135092,608.5000034496188"></path><path id="kity_path_83" fill="none" stroke="rgb(115, 191, 118)" stroke-width="1" d="M328.5000077113509,608.5000034496188C336.5000077113509,608.5000034496188,336.5000077113509,492.5000034496188,344.5000077113509,492.5000034496188"></path><path id="kity_path_85" fill="none" stroke="rgb(115, 191, 118)" stroke-width="1" d="M475.5000077113509,492.5000034496188C483.5000077113509,492.5000034496188,483.5000077113509,492.5000034496188,491.5000077113509,492.5000034496188"></path><path id="kity_path_87" fill="none" stroke="rgb(115, 191, 118)" stroke-width="1" d="M328.5000077113509,608.5000034496188C336.5000077113509,608.5000034496188,336.5000077113509,577.5000034496188,344.5000077113509,577.5000034496188"></path><path id="kity_path_89" fill="none" stroke="rgb(115, 191, 118)" stroke-width="1" d="M499.5000077113509,577.5000034496188C507.5000077113509,577.5000034496188,507.5000077113509,532.5000034496188,515.5000077113509,532.5000034496188"></path><path id="kity_path_91" fill="none" stroke="rgb(115, 191, 118)" stroke-width="1" d="M598.5000077113509,532.5000034496188C606.5000077113509,532.5000034496188,606.5000077113509,519.5000034496188,614.5000077113509,519.5000034496188"></path><path id="kity_path_93" fill="none" stroke="rgb(115, 191, 118)" stroke-width="1" d="M598.5000077113509,532.5000034496188C606.5000077113509,532.5000034496188,606.5000077113509,545.5000034496188,614.5000077113509,545.5000034496188"></path><path id="kity_path_95" fill="none" stroke="rgb(115, 191, 118)" stroke-width="1" d="M499.5000077113509,577.5000034496188C507.5000077113509,577.5000034496188,507.5000077113509,584.5000034496188,515.5000077113509,584.5000034496188"></path><path id="kity_path_97" fill="none" stroke="rgb(115, 191, 118)" stroke-width="1" d="M599.5000077113509,584.5000034496188C607.5000077113509,584.5000034496188,607.5000077113509,571.5000034496188,615.5000077113509,571.5000034496188"></path><path id="kity_path_99" fill="none" stroke="rgb(115, 191, 118)" stroke-width="1" d="M599.5000077113509,584.5000034496188C607.5000077113509,584.5000034496188,607.5000077113509,597.5000034496188,615.5000077113509,597.5000034496188"></path><path id="kity_path_101" fill="none" stroke="rgb(115, 191, 118)" stroke-width="1" d="M499.5000077113509,577.5000034496188C507.5000077113509,577.5000034496188,507.5000077113509,623.5000034496188,515.5000077113509,623.5000034496188"></path><path id="kity_path_103" fill="none" stroke="rgb(115, 191, 118)" stroke-width="1" d="M575.5000077113509,623.5000034496188C583.5000077113509,623.5000034496188,583.5000077113509,623.5000034496188,591.5000077113509,623.5000034496188"></path><path id="kity_path_105" fill="none" stroke="rgb(115, 191, 118)" stroke-width="1" d="M328.5000077113509,608.5000034496188C336.5000077113509,608.5000034496188,336.5000077113509,720.5000034496188,344.5000077113509,720.5000034496188"></path><path id="kity_path_107" fill="none" stroke="rgb(115, 191, 118)" stroke-width="1" d="M429.5000077113509,720.5000034496188C437.5000077113509,720.5000034496188,437.5000077113509,686.5000034496188,445.5000077113509,686.5000034496188"></path><path id="kity_path_109" fill="none" stroke="rgb(115, 191, 118)" stroke-width="1" d="M542.5000077113509,686.5000034496188C550.5000077113509,686.5000034496188,550.5000077113509,652.5000034496188,558.5000077113509,652.5000034496188"></path><path id="kity_path_111" fill="none" stroke="rgb(115, 191, 118)" stroke-width="1" d="M542.5000077113509,686.5000034496188C550.5000077113509,686.5000034496188,550.5000077113509,686.5000034496188,558.5000077113509,686.5000034496188"></path><path id="kity_path_113" fill="none" stroke="rgb(115, 191, 118)" stroke-width="1" d="M542.5000077113509,686.5000034496188C550.5000077113509,686.5000034496188,550.5000077113509,720.5000034496188,558.5000077113509,720.5000034496188"></path><path id="kity_path_115" fill="none" stroke="rgb(115, 191, 118)" stroke-width="1" d="M429.5000077113509,720.5000034496188C437.5000077113509,720.5000034496188,437.5000077113509,754.5000034496188,445.5000077113509,754.5000034496188"></path></g><g id="minder_node1"><path id="node_outline1" fill="rgb(115, 191, 118)" stroke="rgb(115, 191, 118)" d="M25.500007711350918,340.5000034496188h127a5,5,0,0,1,5,5v18a5,5,0,0,1,-5,5h-127a5,5,0,0,1,-5,-5v-18a5,5,0,0,1,5,-5z" stroke-width="3"></path><g id="node_text1" fill="white"><text id="kity_text_22" text-rendering="inherit" font-size="16" dy=".8em" y="344.10000341385603" x="32.50000771135092">农业育种模型库</text></g></g><g id="kity_g_12"><path id="kity_path_13" fill="none" stroke="none" d="M32.50000771135092,354.5000034496188h0v0h0z"></path></g><g id="kity_g_14"><path id="kity_path_15" fill="none" stroke="none" d="M32.50000771135092,354.5000034496188h0v0h0z"></path><path id="kity_path_16" fill="none" stroke="none"></path></g><g id="minder_node2"><g id="node_expander10" style="cursor: pointer;"><path id="kity_path_369" fill="white" stroke="gray" d="M174.50000973790884,101.49999967962503A6,6,0,1,1,162.50000973790884,101.49999967962503A6,6,0,1,1,174.50000973790884,101.49999967962503"></path><path id="kity_path_370" fill="none" stroke="gray" d="M164.00000973790884,101.49999967962503L173.00000973790884,101.49999967962503"></path></g><path id="node_outline11" fill="rgb(238, 246, 238)" stroke="rgb(115, 191, 118)" d="M178.5000101402402,88.49999967962503h119a3,3,0,0,1,3,3v20a3,3,0,0,1,-3,3h-119a3,3,0,0,1,-3,-3v-20a3,3,0,0,1,3,-3z" stroke-width="1"></path><g id="node_text11" fill="black"><text id="kity_text_135" text-rendering="inherit" font-size="14" dy=".8em" y="92.3999996483326" x="195.5000101402402">通用机器学习</text></g></g><g id="minder_node3"><g id="node_expander9" style="cursor: pointer;"><path id="kity_path_366" fill="white" stroke="gray" d="M316.50001185387373,101.49999967962503A6,6,0,1,1,304.50001185387373,101.49999967962503A6,6,0,1,1,316.50001185387373,101.49999967962503"></path><path id="kity_path_367" fill="none" stroke="gray" d="M306.00001185387373,101.49999967962503L315.00001185387373,101.49999967962503"></path></g><path id="node_outline10" fill="none" stroke="none" d="M321.5000120177865,92.49999967962503h50a5,5,0,0,1,5,5v8a5,5,0,0,1,-5,5h-50a5,5,0,0,1,-5,-5v-8a5,5,0,0,1,5,-5z"></path><g id="node_text10" fill="black"><text id="kity_text_133" text-rendering="inherit" font-size="12" dy=".8em" y="93.69999965280294" x="321.5000120177865">数据处理</text></g></g><g id="minder_node4"><g id="node_expander4" style="cursor: pointer;"><path id="kity_path_351" fill="white" stroke="gray" d="M392.500012986362,54.49999897927046A6,6,0,1,1,380.500012986362,54.49999897927046A6,6,0,1,1,392.500012986362,54.49999897927046"></path><path id="kity_path_352" fill="none" stroke="gray" d="M382.000012986362,54.49999897927046L391.000012986362,54.49999897927046"></path></g><path id="node_outline5" fill="none" stroke="none" d="M397.50001315027475,45.49999897927046h49a5,5,0,0,1,5,5v8a5,5,0,0,1,-5,5h-49a5,5,0,0,1,-5,-5v-8a5,5,0,0,1,5,-5z"></path><g id="node_text5" fill="black"><text id="kity_text_123" text-rendering="inherit" font-size="12" dy=".8em" y="46.69999895244837" x="397.50001315027475">表示学习</text></g></g><g id="minder_node5"><g id="node_expander1" style="cursor: pointer;" display="none"><path id="kity_path_342" fill="white" stroke="gray" d="M467.50001410394907,28.499998591840267A6,6,0,1,1,455.50001410394907,28.499998591840267A6,6,0,1,1,467.50001410394907,28.499998591840267"></path><path id="kity_path_343" fill="none" stroke="gray"></path></g><path id="node_outline2" fill="none" stroke="none" d="M472.50001426786184,19.499998591840267h61a5,5,0,0,1,5,5v8a5,5,0,0,1,-5,5h-61a5,5,0,0,1,-5,-5v-8a5,5,0,0,1,5,-5z"></path><g id="node_text2" fill="black"><text id="kity_text_117" text-rendering="inherit" font-size="12" dy=".8em" y="20.699998565018177" x="472.50001426786184">自动编码器</text></g></g><g id="minder_node6"><g id="node_expander2" style="cursor: pointer;" display="none"><path id="kity_path_345" fill="white" stroke="gray" d="M467.50001410394907,54.49999897927046A6,6,0,1,1,455.50001410394907,54.49999897927046A6,6,0,1,1,467.50001410394907,54.49999897927046"></path><path id="kity_path_346" fill="none" stroke="gray"></path></g><path id="node_outline3" fill="none" stroke="none" d="M472.50001426786184,45.49999897927046h74a5,5,0,0,1,5,5v8a5,5,0,0,1,-5,5h-74a5,5,0,0,1,-5,-5v-8a5,5,0,0,1,5,-5z"></path><g id="node_text3" fill="black"><text id="kity_text_119" text-rendering="inherit" font-size="12" dy=".8em" y="46.69999895244837" x="472.50001426786184">线性判别分析</text></g></g><g id="minder_node7"><g id="node_expander3" style="cursor: pointer;" display="none"><path id="kity_path_348" fill="white" stroke="gray" d="M467.50001410394907,80.49999936670065A6,6,0,1,1,455.50001410394907,80.49999936670065A6,6,0,1,1,467.50001410394907,80.49999936670065"></path><path id="kity_path_349" fill="none" stroke="gray"></path></g><path id="node_outline4" fill="none" stroke="none" d="M472.50001426786184,71.49999936670065h61a5,5,0,0,1,5,5v8a5,5,0,0,1,-5,5h-61a5,5,0,0,1,-5,-5v-8a5,5,0,0,1,5,-5z"></path><g id="node_text4" fill="black"><text id="kity_text_121" text-rendering="inherit" font-size="12" dy=".8em" y="72.69999933987856" x="472.50001426786184">主成分分析</text></g></g><g id="minder_node8"><g id="node_expander8" style="cursor: pointer;"><path id="kity_path_363" fill="white" stroke="gray" d="M392.500012986362,144.50000032037497A6,6,0,1,1,380.500012986362,144.50000032037497A6,6,0,1,1,392.500012986362,144.50000032037497"></path><path id="kity_path_364" fill="none" stroke="gray" d="M382.000012986362,144.50000032037497L391.000012986362,144.50000032037497"></path></g><path id="node_outline9" fill="none" stroke="none" d="M397.5000135228038,131.50000032037497h74a5,5,0,0,1,5,5v16a5,5,0,0,1,-5,5h-74a5,5,0,0,1,-5,-5v-16a5,5,0,0,1,5,-5z"></path><g id="node_text9" fill="black"><text id="kity_text_131" text-rendering="inherit" font-size="12" dy=".8em" y="136.70000029355288" x="422.5000135228038">数据增广</text></g><g id="node_progress4"><path id="kity_path_221" fill="#FFED83" stroke="none" d="M417.00001330673695,145.00000032782555A9,9,0,1,1,399.00001330673695,145.00000032782555A9,9,0,1,1,417.00001330673695,145.00000032782555"></path><path id="kity_path_222" fill="#43BC00" stroke="none" d="M408.00001330673695,145.00000032782555L417.00001330673695,145.00000032782555A9,9,0,0,1,399.00001330673695,145.00000032782555A9,9,0,0,1,417.00001330673695,145.00000032782555L408.00001330673695,145.00000032782555z"></path><path id="kity_path_223" fill="#8E8E8E" stroke="none" d="M408.00001315772533,138.00000017881393c4.418,0,8,3.582,8,8h1c0,-5.523,-3.477,-10,-9,-10S399.00001315772533,140.47700017881394,399.00001315772533,146.00000017881393h1C400.00001315772533,141.58200017881393,403.5820131577253,138.00000017881393,408.00001315772533,138.00000017881393z"></path><path id="kity_path_225" fill="#EEE" stroke="none" d="M413.81201315772535,142.89600017881392l-6.75,6.75l-4.5,-4.5L404.25001315772533,143.45900017881394l2.812,2.803l5.062,-5.053L413.81201315772535,142.89600017881392z"></path><path id="kity_path_224" fill="url(#kity_linearGradient_17)" stroke="none" d="M408.00001315772533,135.00000017881393C402.4770131577253,135.00000017881393,398.00001315772533,139.47700017881394,398.00001315772533,145.00000017881393c0,5.523,4.477,10,10,10s10,-4.477,10,-10C418.00001315772533,139.47700017881394,413.52301315772536,135.00000017881393,408.00001315772533,135.00000017881393zM408.00001315772533,153.00000017881393c-4.418,0,-8,-3.582,-8,-8s3.582,-8,8,-8s8,3.582,8,8S412.41801315772534,153.00000017881393,408.00001315772533,153.00000017881393z"></path></g></g><g id="minder_node9"><g id="node_expander5" style="cursor: pointer;" display="none"><path id="kity_path_354" fill="white" stroke="gray" d="M492.5000144764781,110.49999981373549A6,6,0,1,1,480.5000144764781,110.49999981373549A6,6,0,1,1,492.5000144764781,110.49999981373549"></path><path id="kity_path_355" fill="none" stroke="gray"></path></g><path id="node_outline6" fill="none" stroke="none" d="M497.5000150129199,97.49999981373549h63a5,5,0,0,1,5,5v16a5,5,0,0,1,-5,5h-63a5,5,0,0,1,-5,-5v-16a5,5,0,0,1,5,-5z"></path><g id="node_text6" fill="black"><text id="kity_text_125" text-rendering="inherit" font-size="12" dy=".8em" y="102.6999997869134" x="522.5000150129199">弱增强</text></g><g id="node_progress1"><path id="kity_path_203" fill="#FFED83" stroke="none" d="M517.0000147968531,110.99999982118607A9,9,0,1,1,499.00001479685307,110.99999982118607A9,9,0,1,1,517.0000147968531,110.99999982118607"></path><path id="kity_path_204" fill="#43BC00" stroke="none" d="M508.00001479685307,110.99999982118607L517.0000147968531,110.99999982118607A9,9,0,0,1,499.00001479685307,110.99999982118607A9,9,0,0,1,517.0000147968531,110.99999982118607L508.00001479685307,110.99999982118607z"></path><path id="kity_path_205" fill="#8E8E8E" stroke="none" d="M508.00001464784145,103.99999967217445c4.418,0,8,3.582,8,8h1c0,-5.523,-3.477,-10,-9,-10S499.00001464784145,106.47699967217446,499.00001464784145,111.99999967217445h1C500.00001464784145,107.58199967217445,503.58201464784145,103.99999967217445,508.00001464784145,103.99999967217445z"></path><path id="kity_path_207" fill="#EEE" stroke="none" d="M513.8120146478415,108.89599967217445l-6.75,6.75l-4.5,-4.5L504.25001464784145,109.45899967217446l2.812,2.803l5.062,-5.053L513.8120146478415,108.89599967217445z"></path><path id="kity_path_206" fill="url(#kity_linearGradient_17)" stroke="none" d="M508.00001464784145,100.99999967217445C502.47701464784143,100.99999967217445,498.00001464784145,105.47699967217446,498.00001464784145,110.99999967217445c0,5.523,4.477,10,10,10s10,-4.477,10,-10C518.0000146478415,105.47699967217446,513.5230146478415,100.99999967217445,508.00001464784145,100.99999967217445zM508.00001464784145,118.99999967217445c-4.418,0,-8,-3.582,-8,-8s3.582,-8,8,-8s8,3.582,8,8S512.4180146478415,118.99999967217445,508.00001464784145,118.99999967217445z"></path></g></g><g id="minder_node10"><g id="node_expander6" style="cursor: pointer;" display="none"><path id="kity_path_357" fill="white" stroke="gray" d="M492.5000144764781,144.50000032037497A6,6,0,1,1,480.5000144764781,144.50000032037497A6,6,0,1,1,492.5000144764781,144.50000032037497"></path><path id="kity_path_358" fill="none" stroke="gray"></path></g><path id="node_outline7" fill="none" stroke="none" d="M497.5000150129199,131.50000032037497h62a5,5,0,0,1,5,5v16a5,5,0,0,1,-5,5h-62a5,5,0,0,1,-5,-5v-16a5,5,0,0,1,5,-5z"></path><g id="node_text7" fill="black"><text id="kity_text_127" text-rendering="inherit" font-size="12" dy=".8em" y="136.70000029355288" x="522.5000150129199">强增强</text></g><g id="node_progress2"><path id="kity_path_209" fill="#FFED83" stroke="none" d="M517.0000147968531,145.00000032782555A9,9,0,1,1,499.00001479685307,145.00000032782555A9,9,0,1,1,517.0000147968531,145.00000032782555"></path><path id="kity_path_210" fill="#43BC00" stroke="none" d="M508.00001479685307,145.00000032782555L517.0000147968531,145.00000032782555A9,9,0,0,1,499.00001479685307,145.00000032782555A9,9,0,0,1,517.0000147968531,145.00000032782555L508.00001479685307,145.00000032782555z"></path><path id="kity_path_211" fill="#8E8E8E" stroke="none" d="M508.00001464784145,138.00000017881393c4.418,0,8,3.582,8,8h1c0,-5.523,-3.477,-10,-9,-10S499.00001464784145,140.47700017881394,499.00001464784145,146.00000017881393h1C500.00001464784145,141.58200017881393,503.58201464784145,138.00000017881393,508.00001464784145,138.00000017881393z"></path><path id="kity_path_213" fill="#EEE" stroke="none" d="M513.8120146478415,142.89600017881392l-6.75,6.75l-4.5,-4.5L504.25001464784145,143.45900017881394l2.812,2.803l5.062,-5.053L513.8120146478415,142.89600017881392z"></path><path id="kity_path_212" fill="url(#kity_linearGradient_17)" stroke="none" d="M508.00001464784145,135.00000017881393C502.47701464784143,135.00000017881393,498.00001464784145,139.47700017881394,498.00001464784145,145.00000017881393c0,5.523,4.477,10,10,10s10,-4.477,10,-10C518.0000146478415,139.47700017881394,513.5230146478415,135.00000017881393,508.00001464784145,135.00000017881393zM508.00001464784145,153.00000017881393c-4.418,0,-8,-3.582,-8,-8s3.582,-8,8,-8s8,3.582,8,8S512.4180146478415,153.00000017881393,508.00001464784145,153.00000017881393z"></path></g></g><g id="minder_node11"><g id="node_expander7" style="cursor: pointer;" display="none"><path id="kity_path_360" fill="white" stroke="gray" d="M492.5000144764781,178.50000082701445A6,6,0,1,1,480.5000144764781,178.50000082701445A6,6,0,1,1,492.5000144764781,178.50000082701445"></path><path id="kity_path_361" fill="none" stroke="gray"></path></g><path id="node_outline8" fill="none" stroke="none" d="M497.5000150129199,165.50000082701445h89a5,5,0,0,1,5,5v16a5,5,0,0,1,-5,5h-89a5,5,0,0,1,-5,-5v-16a5,5,0,0,1,5,-5z"></path><g id="node_text8" fill="black"><text id="kity_text_129" text-rendering="inherit" font-size="12" dy=".8em" y="170.70000080019236" x="522.5000150129199">mix up增强</text></g><g id="node_progress3"><path id="kity_path_215" fill="#FFED83" stroke="none" d="M517.0000147968531,179.00000083446503A9,9,0,1,1,499.00001479685307,179.00000083446503A9,9,0,1,1,517.0000147968531,179.00000083446503"></path><path id="kity_path_216" fill="#43BC00" stroke="none" d="M508.00001479685307,179.00000083446503L517.0000147968531,179.00000083446503A9,9,0,0,1,499.00001479685307,179.00000083446503A9,9,0,0,1,517.0000147968531,179.00000083446503L508.00001479685307,179.00000083446503z"></path><path id="kity_path_217" fill="#8E8E8E" stroke="none" d="M508.00001464784145,172.00000068545341c4.418,0,8,3.582,8,8h1c0,-5.523,-3.477,-10,-9,-10S499.00001464784145,174.47700068545342,499.00001464784145,180.00000068545341h1C500.00001464784145,175.5820006854534,503.58201464784145,172.00000068545341,508.00001464784145,172.00000068545341z"></path><path id="kity_path_219" fill="#EEE" stroke="none" d="M513.8120146478415,176.8960006854534l-6.75,6.75l-4.5,-4.5L504.25001464784145,177.45900068545342l2.812,2.803l5.062,-5.053L513.8120146478415,176.8960006854534z"></path><path id="kity_path_218" fill="url(#kity_linearGradient_17)" stroke="none" d="M508.00001464784145,169.00000068545341C502.47701464784143,169.00000068545341,498.00001464784145,173.47700068545342,498.00001464784145,179.00000068545341c0,5.523,4.477,10,10,10s10,-4.477,10,-10C518.0000146478415,173.47700068545342,513.5230146478415,169.00000068545341,508.00001464784145,169.00000068545341zM508.00001464784145,187.00000068545341c-4.418,0,-8,-3.582,-8,-8s3.582,-8,8,-8s8,3.582,8,8S512.4180146478415,187.00000068545341,508.00001464784145,187.00000068545341z"></path></g></g><g id="minder_node12"><g id="node_expander25" style="cursor: pointer;"><path id="kity_path_414" fill="white" stroke="gray" d="M174.50000973790884,348.50000336021185A6,6,0,1,1,162.50000973790884,348.50000336021185A6,6,0,1,1,174.50000973790884,348.50000336021185"></path><path id="kity_path_415" fill="none" stroke="gray" d="M164.00000973790884,348.50000336021185L173.00000973790884,348.50000336021185"></path></g><path id="node_outline26" fill="rgb(238, 246, 238)" stroke="rgb(115, 191, 118)" d="M178.50001051276922,332.50000336021185h157a3,3,0,0,1,3,3v26a3,3,0,0,1,-3,3h-157a3,3,0,0,1,-3,-3v-26a3,3,0,0,1,3,-3z" stroke-width="1"></path><g id="node_text26" fill="black"><text id="kity_text_165" text-rendering="inherit" font-size="14" dy=".8em" y="339.4000033289194" x="220.50001051276922">多模态机器学习</text></g><g id="node_progress10"><path id="kity_path_257" fill="#FFED83" stroke="none" d="M215.00001029670238,349.00000336766243A9,9,0,1,1,197.00001029670238,349.00000336766243A9,9,0,1,1,215.00001029670238,349.00000336766243"></path><path id="kity_path_258" fill="#43BC00" stroke="none" d="M206.00001029670238,349.00000336766243"></path><path id="kity_path_259" fill="#8E8E8E" stroke="none" d="M206.00001014769077,342.0000032186508c4.418,0,8,3.582,8,8h1c0,-5.523,-3.477,-10,-9,-10S197.00001014769077,344.4770032186508,197.00001014769077,350.0000032186508h1C198.00001014769077,345.5820032186508,201.58201014769077,342.0000032186508,206.00001014769077,342.0000032186508z"></path><path id="kity_path_261" fill="#EEE" stroke="none" d="M221.8120102967024,356.89600336766244l-6.75,6.75l-4.5,-4.5L212.25001029670238,357.45900336766243l2.812,2.803l5.062,-5.053L221.8120102967024,356.89600336766244z" display="none"></path><path id="kity_path_260" fill="url(#kity_linearGradient_17)" stroke="none" d="M206.00001014769077,339.0000032186508C200.47701014769078,339.0000032186508,196.00001014769077,343.4770032186508,196.00001014769077,349.0000032186508c0,5.523,4.477,10,10,10s10,-4.477,10,-10C216.00001014769077,343.4770032186508,211.52301014769077,339.0000032186508,206.00001014769077,339.0000032186508zM206.00001014769077,357.0000032186508c-4.418,0,-8,-3.582,-8,-8s3.582,-8,8,-8s8,3.582,8,8S210.41801014769078,357.0000032186508,206.00001014769077,357.0000032186508z"></path></g></g><g id="minder_node13"><g id="node_expander14" style="cursor: pointer;"><path id="kity_path_381" fill="white" stroke="gray" d="M354.50001242011786,242.50000178068876A6,6,0,1,1,342.50001242011786,242.50000178068876A6,6,0,1,1,354.50001242011786,242.50000178068876"></path><path id="kity_path_382" fill="none" stroke="gray" d="M344.00001242011786,242.50000178068876L353.00001242011786,242.50000178068876"></path></g><path id="node_outline15" fill="none" stroke="none" d="M359.50001295655966,229.50000178068876h110a5,5,0,0,1,5,5v16a5,5,0,0,1,-5,5h-110a5,5,0,0,1,-5,-5v-16a5,5,0,0,1,5,-5z"></path><g id="node_text15" fill="black"><text id="kity_text_143" text-rendering="inherit" font-size="12" dy=".8em" y="234.70000175386667" x="384.50001295655966">多模态融合模型</text></g><g id="node_progress5"><path id="kity_path_227" fill="#FFED83" stroke="none" d="M379.0000127404928,243.00000178813934A9,9,0,1,1,361.0000127404928,243.00000178813934A9,9,0,1,1,379.0000127404928,243.00000178813934"></path><path id="kity_path_228" fill="#43BC00" stroke="none" d="M370.0000127404928,243.00000178813934"></path><path id="kity_path_229" fill="#8E8E8E" stroke="none" d="M370.0000125914812,236.00000163912773c4.418,0,8,3.582,8,8h1c0,-5.523,-3.477,-10,-9,-10S361.0000125914812,238.47700163912774,361.0000125914812,244.00000163912773h1C362.0000125914812,239.58200163912772,365.5820125914812,236.00000163912773,370.0000125914812,236.00000163912773z"></path><path id="kity_path_231" fill="#EEE" stroke="none" d="M385.81201274049283,250.89600178813933l-6.75,6.75l-4.5,-4.5L376.2500127404928,251.45900178813935l2.812,2.803l5.062,-5.053L385.81201274049283,250.89600178813933z" display="none"></path><path id="kity_path_230" fill="url(#kity_linearGradient_17)" stroke="none" d="M370.0000125914812,233.00000163912773C364.4770125914812,233.00000163912773,360.0000125914812,237.47700163912774,360.0000125914812,243.00000163912773c0,5.523,4.477,10,10,10s10,-4.477,10,-10C380.0000125914812,237.47700163912774,375.52301259148123,233.00000163912773,370.0000125914812,233.00000163912773zM370.0000125914812,251.00000163912773c-4.418,0,-8,-3.582,-8,-8s3.582,-8,8,-8s8,3.582,8,8S374.4180125914812,251.00000163912773,370.0000125914812,251.00000163912773z"></path></g></g><g id="minder_node14"><g id="node_expander11" style="cursor: pointer;" display="none"><path id="kity_path_372" fill="white" stroke="gray" d="M490.5000144466758,216.50000139325857A6,6,0,1,1,478.5000144466758,216.50000139325857A6,6,0,1,1,490.5000144466758,216.50000139325857"></path><path id="kity_path_373" fill="none" stroke="gray"></path></g><path id="node_outline12" fill="none" stroke="none" d="M495.50001461058855,207.50000139325857h170a5,5,0,0,1,5,5v8a5,5,0,0,1,-5,5h-170a5,5,0,0,1,-5,-5v-8a5,5,0,0,1,5,-5z"></path><g id="node_text12" fill="black"><text id="kity_text_137" text-rendering="inherit" font-size="12" dy=".8em" y="208.70000136643648" x="495.50001461058855">CMML：综合半监督多模态学习</text></g></g><g id="minder_node15"><g id="node_expander12" style="cursor: pointer;" display="none"><path id="kity_path_375" fill="white" stroke="gray" d="M490.5000144466758,242.50000178068876A6,6,0,1,1,478.5000144466758,242.50000178068876A6,6,0,1,1,490.5000144466758,242.50000178068876"></path><path id="kity_path_376" fill="none" stroke="gray"></path></g><path id="node_outline13" fill="none" stroke="none" d="M495.50001461058855,233.50000178068876h253a5,5,0,0,1,5,5v8a5,5,0,0,1,-5,5h-253a5,5,0,0,1,-5,-5v-8a5,5,0,0,1,5,-5z"></path><g id="node_text13" fill="black"><text id="kity_text_139" text-rendering="inherit" font-size="12" dy=".8em" y="234.70000175386667" x="495.50001461058855">LMF：基于模态特定因子的低秩多模态融合分类</text></g></g><g id="minder_node16"><g id="node_expander13" style="cursor: pointer;" display="none"><path id="kity_path_378" fill="white" stroke="gray" d="M490.5000144466758,268.50000216811895A6,6,0,1,1,478.5000144466758,268.50000216811895A6,6,0,1,1,490.5000144466758,268.50000216811895"></path><path id="kity_path_379" fill="none" stroke="gray"></path></g><path id="node_outline14" fill="none" stroke="none" d="M495.50001461058855,259.50000216811895h183a5,5,0,0,1,5,5v8a5,5,0,0,1,-5,5h-183a5,5,0,0,1,-5,-5v-8a5,5,0,0,1,5,-5z"></path><g id="node_text14" fill="black"><text id="kity_text_141" text-rendering="inherit" font-size="12" dy=".8em" y="260.70000214129686" x="495.50001461058855">TMC：可信预测的多模态融合策略</text></g></g><g id="minder_node17"><g id="node_expander19" style="cursor: pointer;"><path id="kity_path_396" fill="white" stroke="gray" d="M354.50001242011786,333.50000313669443A6,6,0,1,1,342.50001242011786,333.50000313669443A6,6,0,1,1,354.50001242011786,333.50000313669443"></path><path id="kity_path_397" fill="none" stroke="gray" d="M344.00001242011786,333.50000313669443L353.00001242011786,333.50000313669443"></path></g><path id="node_outline20" fill="none" stroke="none" d="M359.50001295655966,320.50000313669443h111a5,5,0,0,1,5,5v16a5,5,0,0,1,-5,5h-111a5,5,0,0,1,-5,-5v-16a5,5,0,0,1,5,-5z"></path><g id="node_text20" fill="black"><text id="kity_text_153" text-rendering="inherit" font-size="12" dy=".8em" y="325.70000310987234" x="384.50001295655966">跨模态检索模型</text></g><g id="node_progress6"><path id="kity_path_233" fill="#FFED83" stroke="none" d="M379.0000127404928,334.000003144145A9,9,0,1,1,361.0000127404928,334.000003144145A9,9,0,1,1,379.0000127404928,334.000003144145"></path><path id="kity_path_234" fill="#43BC00" stroke="none" d="M370.0000127404928,334.000003144145"></path><path id="kity_path_235" fill="#8E8E8E" stroke="none" d="M370.0000125914812,327.0000029951334c4.418,0,8,3.582,8,8h1c0,-5.523,-3.477,-10,-9,-10S361.0000125914812,329.4770029951334,361.0000125914812,335.0000029951334h1C362.0000125914812,330.5820029951334,365.5820125914812,327.0000029951334,370.0000125914812,327.0000029951334z"></path><path id="kity_path_237" fill="#EEE" stroke="none" d="M385.81201274049283,341.896003144145l-6.75,6.75l-4.5,-4.5L376.2500127404928,342.459003144145l2.812,2.803l5.062,-5.053L385.81201274049283,341.896003144145z" display="none"></path><path id="kity_path_236" fill="url(#kity_linearGradient_17)" stroke="none" d="M370.0000125914812,324.0000029951334C364.4770125914812,324.0000029951334,360.0000125914812,328.4770029951334,360.0000125914812,334.0000029951334c0,5.523,4.477,10,10,10s10,-4.477,10,-10C380.0000125914812,328.4770029951334,375.52301259148123,324.0000029951334,370.0000125914812,324.0000029951334zM370.0000125914812,342.0000029951334c-4.418,0,-8,-3.582,-8,-8s3.582,-8,8,-8s8,3.582,8,8S374.4180125914812,342.0000029951334,370.0000125914812,342.0000029951334z"></path></g></g><g id="minder_node18"><g id="node_expander15" style="cursor: pointer;" display="none"><path id="kity_path_384" fill="white" stroke="gray" d="M491.50001446157694,294.50000255554914A6,6,0,1,1,479.50001446157694,294.50000255554914A6,6,0,1,1,491.50001446157694,294.50000255554914"></path><path id="kity_path_385" fill="none" stroke="gray"></path></g><path id="node_outline16" fill="none" stroke="none" d="M496.5000146254897,285.50000255554914h200a5,5,0,0,1,5,5v8a5,5,0,0,1,-5,5h-200a5,5,0,0,1,-5,-5v-8a5,5,0,0,1,5,-5z"></path><g id="node_text16" fill="black"><text id="kity_text_145" text-rendering="inherit" font-size="12" dy=".8em" y="286.70000252872705" x="496.5000146254897">VSE++ ：为图像和文本提取全局特征</text></g></g><g id="minder_node19"><g id="node_expander16" style="cursor: pointer;" display="none"><path id="kity_path_387" fill="white" stroke="gray" d="M491.50001446157694,320.50000294297934A6,6,0,1,1,479.50001446157694,320.50000294297934A6,6,0,1,1,491.50001446157694,320.50000294297934"></path><path id="kity_path_388" fill="none" stroke="gray"></path></g><path id="node_outline17" fill="none" stroke="none" d="M496.5000146254897,311.50000294297934h274a5,5,0,0,1,5,5v8a5,5,0,0,1,-5,5h-274a5,5,0,0,1,-5,-5v-8a5,5,0,0,1,5,-5z"></path><g id="node_text17" fill="black"><text id="kity_text_147" text-rendering="inherit" font-size="12" dy=".8em" y="312.70000291615725" x="496.5000146254897">SCAN：从图像区域和文本单词中学习图文匹配打分</text></g></g><g id="minder_node20"><g id="node_expander17" style="cursor: pointer;" display="none"><path id="kity_path_390" fill="white" stroke="gray" d="M491.50001446157694,346.5000033304095A6,6,0,1,1,479.50001446157694,346.5000033304095A6,6,0,1,1,491.50001446157694,346.5000033304095"></path><path id="kity_path_391" fill="none" stroke="gray"></path></g><path id="node_outline18" fill="none" stroke="none" d="M496.5000146254897,337.5000033304095h324a5,5,0,0,1,5,5v8a5,5,0,0,1,-5,5h-324a5,5,0,0,1,-5,-5v-8a5,5,0,0,1,5,-5z"></path><g id="node_text18" fill="black"><text id="kity_text_149" text-rendering="inherit" font-size="12" dy=".8em" y="338.70000330358744" x="496.5000146254897">IMRAM：跨模态图像-文本检索的迭代匹配与递归注意力机制</text></g></g><g id="minder_node21"><g id="node_expander18" style="cursor: pointer;" display="none"><path id="kity_path_393" fill="white" stroke="gray" d="M491.50001446157694,372.5000037178397A6,6,0,1,1,479.50001446157694,372.5000037178397A6,6,0,1,1,491.50001446157694,372.5000037178397"></path><path id="kity_path_394" fill="none" stroke="gray"></path></g><path id="node_outline19" fill="none" stroke="none" d="M496.5000146254897,363.5000037178397h236a5,5,0,0,1,5,5v8a5,5,0,0,1,-5,5h-236a5,5,0,0,1,-5,-5v-8a5,5,0,0,1,5,-5z"></path><g id="node_text19" fill="black"><text id="kity_text_151" text-rendering="inherit" font-size="12" dy=".8em" y="364.7000036910176" x="496.5000146254897">SGRAF：图像-文本匹配的相似性推理和过滤</text></g></g><g id="minder_node22"><g id="node_expander22" style="cursor: pointer;"><path id="kity_path_405" fill="white" stroke="gray" d="M354.50001242011786,411.500004298985A6,6,0,1,1,342.50001242011786,411.500004298985A6,6,0,1,1,354.50001242011786,411.500004298985"></path><path id="kity_path_406" fill="none" stroke="gray" d="M344.00001242011786,411.500004298985L353.00001242011786,411.500004298985"></path></g><path id="node_outline23" fill="none" stroke="none" d="M359.50001295655966,398.500004298985h98a5,5,0,0,1,5,5v16a5,5,0,0,1,-5,5h-98a5,5,0,0,1,-5,-5v-16a5,5,0,0,1,5,-5z"></path><g id="node_text23" fill="black"><text id="kity_text_159" text-rendering="inherit" font-size="12" dy=".8em" y="403.7000042721629" x="384.50001295655966">图文生成模型</text></g><g id="node_progress7"><path id="kity_path_239" fill="#FFED83" stroke="none" d="M379.0000127404928,412.0000043064356A9,9,0,1,1,361.0000127404928,412.0000043064356A9,9,0,1,1,379.0000127404928,412.0000043064356"></path><path id="kity_path_240" fill="#43BC00" stroke="none" d="M370.0000127404928,412.0000043064356"></path><path id="kity_path_241" fill="#8E8E8E" stroke="none" d="M370.0000125914812,405.000004157424c4.418,0,8,3.582,8,8h1c0,-5.523,-3.477,-10,-9,-10S361.0000125914812,407.47700415742395,361.0000125914812,413.000004157424h1C362.0000125914812,408.58200415742397,365.5820125914812,405.000004157424,370.0000125914812,405.000004157424z"></path><path id="kity_path_243" fill="#EEE" stroke="none" d="M385.81201274049283,419.8960043064356l-6.75,6.75l-4.5,-4.5L376.2500127404928,420.4590043064356l2.812,2.803l5.062,-5.053L385.81201274049283,419.8960043064356z" display="none"></path><path id="kity_path_242" fill="url(#kity_linearGradient_17)" stroke="none" d="M370.0000125914812,402.000004157424C364.4770125914812,402.000004157424,360.0000125914812,406.47700415742395,360.0000125914812,412.000004157424c0,5.523,4.477,10,10,10s10,-4.477,10,-10C380.0000125914812,406.47700415742395,375.52301259148123,402.000004157424,370.0000125914812,402.000004157424zM370.0000125914812,420.000004157424c-4.418,0,-8,-3.582,-8,-8s3.582,-8,8,-8s8,3.582,8,8S374.4180125914812,420.000004157424,370.0000125914812,420.000004157424z"></path></g></g><g id="minder_node23"><g id="node_expander20" style="cursor: pointer;" display="none"><path id="kity_path_399" fill="white" stroke="gray" d="M478.50001426786184,398.5000041052699A6,6,0,1,1,466.50001426786184,398.5000041052699A6,6,0,1,1,478.50001426786184,398.5000041052699"></path><path id="kity_path_400" fill="none" stroke="gray"></path></g><path id="node_outline21" fill="none" stroke="none" d="M483.5000144317746,389.5000041052699h306a5,5,0,0,1,5,5v8a5,5,0,0,1,-5,5h-306a5,5,0,0,1,-5,-5v-8a5,5,0,0,1,5,-5z"></path><g id="node_text21" fill="black"><text id="kity_text_155" text-rendering="inherit" font-size="12" dy=".8em" y="390.7000040784478" x="483.5000144317746">ShowAttendTell：带视觉注意力机制的神经图像描述生成</text></g></g><g id="minder_node24"><g id="node_expander21" style="cursor: pointer;" display="none"><path id="kity_path_402" fill="white" stroke="gray" d="M478.50001426786184,424.5000044927001A6,6,0,1,1,466.50001426786184,424.5000044927001A6,6,0,1,1,478.50001426786184,424.5000044927001"></path><path id="kity_path_403" fill="none" stroke="gray"></path></g><path id="node_outline22" fill="none" stroke="none" d="M483.5000144317746,415.5000044927001h202a5,5,0,0,1,5,5v8a5,5,0,0,1,-5,5h-202a5,5,0,0,1,-5,-5v-8a5,5,0,0,1,5,-5z"></path><g id="node_text22" fill="black"><text id="kity_text_157" text-rendering="inherit" font-size="12" dy=".8em" y="416.700004465878" x="483.5000144317746">AoANet：用于图像描述的注意力机制</text></g></g><g id="minder_node25"><g id="node_expander24" style="cursor: pointer;"><path id="kity_path_411" fill="white" stroke="gray" d="M354.50001242011786,454.50000493973494A6,6,0,1,1,342.50001242011786,454.50000493973494A6,6,0,1,1,354.50001242011786,454.50000493973494"></path><path id="kity_path_412" fill="none" stroke="gray" d="M344.00001242011786,454.50000493973494L353.00001242011786,454.50000493973494"></path></g><path id="node_outline25" fill="none" stroke="none" d="M359.50001295655966,441.50000493973494h146a5,5,0,0,1,5,5v16a5,5,0,0,1,-5,5h-146a5,5,0,0,1,-5,-5v-16a5,5,0,0,1,5,-5z" stroke-width="3"></path><g id="node_text25" fill="black"><text id="kity_text_163" text-rendering="inherit" font-size="12" dy=".8em" y="446.70000491291285" x="384.50001295655966">多模态交互可视化模型</text></g><g id="node_progress9"><path id="kity_path_251" fill="#FFED83" stroke="none" d="M379.0000127404928,455.0000049471855A9,9,0,1,1,361.0000127404928,455.0000049471855A9,9,0,1,1,379.0000127404928,455.0000049471855"></path><path id="kity_path_252" fill="#43BC00" stroke="none" d="M370.0000127404928,455.0000049471855L379.0000127404928,455.0000049471855A9,9,0,0,1,361.0000127404928,455.0000049471855A9,9,0,0,1,379.0000127404928,455.0000049471855L370.0000127404928,455.0000049471855z"></path><path id="kity_path_253" fill="#8E8E8E" stroke="none" d="M370.0000125914812,448.0000047981739c4.418,0,8,3.582,8,8h1c0,-5.523,-3.477,-10,-9,-10S361.0000125914812,450.4770047981739,361.0000125914812,456.0000047981739h1C362.0000125914812,451.5820047981739,365.5820125914812,448.0000047981739,370.0000125914812,448.0000047981739z"></path><path id="kity_path_255" fill="#EEE" stroke="none" d="M375.8120125914812,452.8960047981739l-6.75,6.75l-4.5,-4.5L366.2500125914812,453.4590047981739l2.812,2.803l5.062,-5.053L375.8120125914812,452.8960047981739z"></path><path id="kity_path_254" fill="url(#kity_linearGradient_17)" stroke="none" d="M370.0000125914812,445.0000047981739C364.4770125914812,445.0000047981739,360.0000125914812,449.4770047981739,360.0000125914812,455.0000047981739c0,5.523,4.477,10,10,10s10,-4.477,10,-10C380.0000125914812,449.4770047981739,375.52301259148123,445.0000047981739,370.0000125914812,445.0000047981739zM370.0000125914812,463.0000047981739c-4.418,0,-8,-3.582,-8,-8s3.582,-8,8,-8s8,3.582,8,8S374.4180125914812,463.0000047981739,370.0000125914812,463.0000047981739z"></path></g></g><g id="minder_node26"><g id="node_expander23" style="cursor: pointer;" display="none"><path id="kity_path_408" fill="white" stroke="gray" d="M526.5000149831176,454.50000493973494A6,6,0,1,1,514.5000149831176,454.50000493973494A6,6,0,1,1,526.5000149831176,454.50000493973494"></path><path id="kity_path_409" fill="none" stroke="gray"></path></g><path id="node_outline24" fill="none" stroke="none" d="M531.5000155195594,441.50000493973494h229a5,5,0,0,1,5,5v16a5,5,0,0,1,-5,5h-229a5,5,0,0,1,-5,-5v-16a5,5,0,0,1,5,-5z" stroke-width="3"></path><g id="node_text24" fill="black"><text id="kity_text_161" text-rendering="inherit" font-size="12" dy=".8em" y="446.70000491291285" x="556.5000155195594">VL InterpreT：多模态交互可视化工具</text></g><g id="node_progress8"><path id="kity_path_245" fill="#FFED83" stroke="none" d="M551.0000153034925,455.0000049471855A9,9,0,1,1,533.0000153034925,455.0000049471855A9,9,0,1,1,551.0000153034925,455.0000049471855"></path><path id="kity_path_246" fill="#43BC00" stroke="none" d="M542.0000153034925,455.0000049471855L551.0000153034925,455.0000049471855A9,9,0,0,1,533.0000153034925,455.0000049471855A9,9,0,0,1,551.0000153034925,455.0000049471855L542.0000153034925,455.0000049471855z"></path><path id="kity_path_247" fill="#8E8E8E" stroke="none" d="M542.0000151544809,448.0000047981739c4.418,0,8,3.582,8,8h1c0,-5.523,-3.477,-10,-9,-10S533.0000151544809,450.4770047981739,533.0000151544809,456.0000047981739h1C534.0000151544809,451.5820047981739,537.5820151544809,448.0000047981739,542.0000151544809,448.0000047981739z"></path><path id="kity_path_249" fill="#EEE" stroke="none" d="M547.812015154481,452.8960047981739l-6.75,6.75l-4.5,-4.5L538.2500151544809,453.4590047981739l2.812,2.803l5.062,-5.053L547.812015154481,452.8960047981739z"></path><path id="kity_path_248" fill="url(#kity_linearGradient_17)" stroke="none" d="M542.0000151544809,445.0000047981739C536.4770151544809,445.0000047981739,532.0000151544809,449.4770047981739,532.0000151544809,455.0000047981739c0,5.523,4.477,10,10,10s10,-4.477,10,-10C552.0000151544809,449.4770047981739,547.523015154481,445.0000047981739,542.0000151544809,445.0000047981739zM542.0000151544809,463.0000047981739c-4.418,0,-8,-3.582,-8,-8s3.582,-8,8,-8s8,3.582,8,8S546.4180151544809,463.0000047981739,542.0000151544809,463.0000047981739z"></path></g></g><g id="minder_node27"><g id="node_expander43" style="cursor: pointer;"><path id="kity_path_468" fill="white" stroke="gray" d="M174.50000973790884,608.5000072345138A6,6,0,1,1,162.50000973790884,608.5000072345138A6,6,0,1,1,174.50000973790884,608.5000072345138"></path><path id="kity_path_469" fill="none" stroke="gray" d="M164.00000973790884,608.5000072345138L173.00000973790884,608.5000072345138"></path></g><path id="node_outline44" fill="rgb(238, 246, 238)" stroke="rgb(115, 191, 118)" d="M178.5000101402402,595.5000072345138h147a3,3,0,0,1,3,3v20a3,3,0,0,1,-3,3h-147a3,3,0,0,1,-3,-3v-20a3,3,0,0,1,3,-3z" stroke-width="1"></path><g id="node_text44" fill="black"><text id="kity_text_201" text-rendering="inherit" font-size="14" dy=".8em" y="599.4000072032213" x="195.5000101402402">农业育种机器学习</text></g></g><g id="minder_node28"><g id="node_expander27" style="cursor: pointer;"><path id="kity_path_420" fill="white" stroke="gray" d="M344.50001227110624,492.50000550597906A6,6,0,1,1,332.50001227110624,492.50000550597906A6,6,0,1,1,344.50001227110624,492.50000550597906"></path><path id="kity_path_421" fill="none" stroke="gray" d="M334.00001227110624,492.50000550597906L343.00001227110624,492.50000550597906"></path></g><path id="node_outline28" fill="none" stroke="none" d="M349.500012435019,483.50000550597906h121a5,5,0,0,1,5,5v8a5,5,0,0,1,-5,5h-121a5,5,0,0,1,-5,-5v-8a5,5,0,0,1,5,-5z"></path><g id="node_text28" fill="black"><text id="kity_text_169" text-rendering="inherit" font-size="12" dy=".8em" y="484.70000547915697" x="349.500012435019">应用于基因的机器学习</text></g></g><g id="minder_node29"><g id="node_expander26" style="cursor: pointer;" display="none"><path id="kity_path_417" fill="white" stroke="gray" d="M491.50001446157694,492.50000550597906A6,6,0,1,1,479.50001446157694,492.50000550597906A6,6,0,1,1,491.50001446157694,492.50000550597906"></path><path id="kity_path_418" fill="none" stroke="gray"></path></g><path id="node_outline27" fill="none" stroke="none" d="M496.5000146254897,483.50000550597906h164a5,5,0,0,1,5,5v8a5,5,0,0,1,-5,5h-164a5,5,0,0,1,-5,-5v-8a5,5,0,0,1,5,-5z"></path><g id="node_text27" fill="black"><text id="kity_text_167" text-rendering="inherit" font-size="12" dy=".8em" y="484.70000547915697" x="496.5000146254897">CropGBM全基因组选择工具箱</text></g></g><g id="minder_node30"><g id="node_expander36" style="cursor: pointer;"><path id="kity_path_447" fill="white" stroke="gray" d="M344.50001227110624,577.5000067725778A6,6,0,1,1,332.50001227110624,577.5000067725778A6,6,0,1,1,344.50001227110624,577.5000067725778"></path><path id="kity_path_448" fill="none" stroke="gray" d="M334.00001227110624,577.5000067725778L343.00001227110624,577.5000067725778"></path></g><path id="node_outline37" fill="none" stroke="none" d="M349.500012435019,568.5000067725778h145a5,5,0,0,1,5,5v8a5,5,0,0,1,-5,5h-145a5,5,0,0,1,-5,-5v-8a5,5,0,0,1,5,-5z"></path><g id="node_text37" fill="black"><text id="kity_text_187" text-rendering="inherit" font-size="12" dy=".8em" y="569.7000067457557" x="349.500012435019">应用于表型图像的机器学习</text></g></g><g id="minder_node31"><g id="node_expander30" style="cursor: pointer;"><path id="kity_path_429" fill="white" stroke="gray" d="M515.5000148192048,532.5000061020255A6,6,0,1,1,503.5000148192048,532.5000061020255A6,6,0,1,1,515.5000148192048,532.5000061020255"></path><path id="kity_path_430" fill="none" stroke="gray" d="M505.0000148192048,532.5000061020255L514.0000148192048,532.5000061020255"></path></g><path id="node_outline31" fill="none" stroke="none" d="M520.5000149831176,523.5000061020255h73a5,5,0,0,1,5,5v8a5,5,0,0,1,-5,5h-73a5,5,0,0,1,-5,-5v-8a5,5,0,0,1,5,-5z"></path><g id="node_text31" fill="black"><text id="kity_text_175" text-rendering="inherit" font-size="12" dy=".8em" y="524.7000060752034" x="520.5000149831176">目标检测模型</text></g></g><g id="minder_node32"><g id="node_expander28" style="cursor: pointer;" display="none"><path id="kity_path_423" fill="white" stroke="gray" d="M614.5000162944198,519.5000059083104A6,6,0,1,1,602.5000162944198,519.5000059083104A6,6,0,1,1,614.5000162944198,519.5000059083104"></path><path id="kity_path_424" fill="none" stroke="gray"></path></g><path id="node_outline29" fill="none" stroke="none" d="M619.5000164583325,510.5000059083104h211a5,5,0,0,1,5,5v8a5,5,0,0,1,-5,5h-211a5,5,0,0,1,-5,-5v-8a5,5,0,0,1,5,-5z"></path><g id="node_text29" fill="black"><text id="kity_text_171" text-rendering="inherit" font-size="12" dy=".8em" y="511.7000058814883" x="619.5000164583325">Faster R-CNN：快速区域卷积神经网络</text></g></g><g id="minder_node33"><g id="node_expander29" style="cursor: pointer;" display="none"><path id="kity_path_426" fill="white" stroke="gray" d="M614.5000162944198,545.5000062957406A6,6,0,1,1,602.5000162944198,545.5000062957406A6,6,0,1,1,614.5000162944198,545.5000062957406"></path><path id="kity_path_427" fill="none" stroke="gray"></path></g><path id="node_outline30" fill="none" stroke="none" d="M619.5000164583325,536.5000062957406h130a5,5,0,0,1,5,5v8a5,5,0,0,1,-5,5h-130a5,5,0,0,1,-5,-5v-8a5,5,0,0,1,5,-5z" stroke-width="3"></path><g id="node_text30" fill="black"><text id="kity_text_173" text-rendering="inherit" font-size="12" dy=".8em" y="537.7000062689185" x="619.5000164583325">YOLOv7：即时目标检测</text></g></g><g id="minder_node34"><g id="node_expander33" style="cursor: pointer;"><path id="kity_path_438" fill="white" stroke="gray" d="M515.5000148192048,584.5000068768859A6,6,0,1,1,503.5000148192048,584.5000068768859A6,6,0,1,1,515.5000148192048,584.5000068768859"></path><path id="kity_path_439" fill="none" stroke="gray" d="M505.0000148192048,584.5000068768859L514.0000148192048,584.5000068768859"></path></g><path id="node_outline34" fill="none" stroke="none" d="M520.5000149831176,575.5000068768859h74a5,5,0,0,1,5,5v8a5,5,0,0,1,-5,5h-74a5,5,0,0,1,-5,-5v-8a5,5,0,0,1,5,-5z"></path><g id="node_text34" fill="black"><text id="kity_text_181" text-rendering="inherit" font-size="12" dy=".8em" y="576.7000068500638" x="520.5000149831176">语义分割模型</text></g></g><g id="minder_node35"><g id="node_expander31" style="cursor: pointer;" display="none"><path id="kity_path_432" fill="white" stroke="gray" d="M615.5000163093209,571.5000066831708A6,6,0,1,1,603.5000163093209,571.5000066831708A6,6,0,1,1,615.5000163093209,571.5000066831708"></path><path id="kity_path_433" fill="none" stroke="gray"></path></g><path id="node_outline32" fill="none" stroke="none" d="M620.5000164732337,562.5000066831708h194a5,5,0,0,1,5,5v8a5,5,0,0,1,-5,5h-194a5,5,0,0,1,-5,-5v-8a5,5,0,0,1,5,-5z" stroke-width="3"></path><g id="node_text32" fill="black"><text id="kity_text_177" text-rendering="inherit" font-size="12" dy=".8em" y="563.7000066563487" x="620.5000164732337">DeepLabv3+：深度全卷积神经网络</text></g></g><g id="minder_node36"><g id="node_expander32" style="cursor: pointer;" display="none"><path id="kity_path_435" fill="white" stroke="gray" d="M615.5000163093209,597.500007070601A6,6,0,1,1,603.5000163093209,597.500007070601A6,6,0,1,1,615.5000163093209,597.500007070601"></path><path id="kity_path_436" fill="none" stroke="gray"></path></g><path id="node_outline33" fill="none" stroke="none" d="M620.5000164732337,588.500007070601h123a5,5,0,0,1,5,5v8a5,5,0,0,1,-5,5h-123a5,5,0,0,1,-5,-5v-8a5,5,0,0,1,5,-5z" stroke-width="3"></path><g id="node_text33" fill="black"><text id="kity_text_179" text-rendering="inherit" font-size="12" dy=".8em" y="589.7000070437789" x="620.5000164732337">HRNet：高分辨率网络</text></g></g><g id="minder_node37"><g id="node_expander35" style="cursor: pointer;"><path id="kity_path_444" fill="white" stroke="gray" d="M515.5000148192048,623.5000074580312A6,6,0,1,1,503.5000148192048,623.5000074580312A6,6,0,1,1,515.5000148192048,623.5000074580312"></path><path id="kity_path_445" fill="none" stroke="gray" d="M505.0000148192048,623.5000074580312L514.0000148192048,623.5000074580312"></path></g><path id="node_outline36" fill="none" stroke="none" d="M520.5000149831176,614.5000074580312h50a5,5,0,0,1,5,5v8a5,5,0,0,1,-5,5h-50a5,5,0,0,1,-5,-5v-8a5,5,0,0,1,5,-5z"></path><g id="node_text36" fill="black"><text id="kity_text_185" text-rendering="inherit" font-size="12" dy=".8em" y="615.7000074312091" x="520.5000149831176">追踪模型</text></g></g><g id="minder_node38"><g id="node_expander34" style="cursor: pointer;" display="none"><path id="kity_path_441" fill="white" stroke="gray" d="M591.5000159516931,623.5000074580312A6,6,0,1,1,579.5000159516931,623.5000074580312A6,6,0,1,1,591.5000159516931,623.5000074580312"></path><path id="kity_path_442" fill="none" stroke="gray"></path></g><path id="node_outline35" fill="none" stroke="none" d="M596.5000161156058,614.5000074580312h168a5,5,0,0,1,5,5v8a5,5,0,0,1,-5,5h-168a5,5,0,0,1,-5,-5v-8a5,5,0,0,1,5,-5z" stroke-width="3"></path><g id="node_text35" fill="black"><text id="kity_text_183" text-rendering="inherit" font-size="12" dy=".8em" y="615.7000074312091" x="596.5000161156058">SiamRPN++：多尺度跟踪网络</text></g></g><g id="minder_node39"><g id="node_expander42" style="cursor: pointer;"><path id="kity_path_465" fill="white" stroke="gray" d="M344.50001227110624,720.5000089034438A6,6,0,1,1,332.50001227110624,720.5000089034438A6,6,0,1,1,344.50001227110624,720.5000089034438"></path><path id="kity_path_466" fill="none" stroke="gray" d="M334.00001227110624,720.5000089034438L343.00001227110624,720.5000089034438"></path></g><path id="node_outline43" fill="none" stroke="none" d="M349.50001280754805,707.5000089034438h75a5,5,0,0,1,5,5v16a5,5,0,0,1,-5,5h-75a5,5,0,0,1,-5,-5v-16a5,5,0,0,1,5,-5z"></path><g id="node_text43" fill="black"><text id="kity_text_199" text-rendering="inherit" font-size="12" dy=".8em" y="712.7000088766217" x="374.50001280754805">基础模型</text></g><g id="node_progress16"><path id="kity_path_293" fill="#FFED83" stroke="none" d="M369.0000125914812,721.0000089108944A9,9,0,1,1,351.0000125914812,721.0000089108944A9,9,0,1,1,369.0000125914812,721.0000089108944"></path><path id="kity_path_294" fill="#43BC00" stroke="none" d="M360.0000125914812,721.0000089108944"></path><path id="kity_path_295" fill="#8E8E8E" stroke="none" d="M360.0000124424696,714.0000087618828c4.418,0,8,3.582,8,8h1c0,-5.523,-3.477,-10,-9,-10S351.0000124424696,716.4770087618828,351.0000124424696,722.0000087618828h1C352.0000124424696,717.5820087618828,355.5820124424696,714.0000087618828,360.0000124424696,714.0000087618828z"></path><path id="kity_path_297" fill="#EEE" stroke="none" d="M375.8120125914812,728.8960089108944l-6.75,6.75l-4.5,-4.5L366.2500125914812,729.4590089108943l2.812,2.803l5.062,-5.053L375.8120125914812,728.8960089108944z" display="none"></path><path id="kity_path_296" fill="url(#kity_linearGradient_17)" stroke="none" d="M360.0000124424696,711.0000087618828C354.4770124424696,711.0000087618828,350.0000124424696,715.4770087618828,350.0000124424696,721.0000087618828c0,5.523,4.477,10,10,10s10,-4.477,10,-10C370.0000124424696,715.4770087618828,365.5230124424696,711.0000087618828,360.0000124424696,711.0000087618828zM360.0000124424696,729.0000087618828c-4.418,0,-8,-3.582,-8,-8s3.582,-8,8,-8s8,3.582,8,8S364.4180124424696,729.0000087618828,360.0000124424696,729.0000087618828z"></path></g></g><g id="minder_node40"><g id="node_expander40" style="cursor: pointer;"><path id="kity_path_459" fill="white" stroke="gray" d="M445.5000137761235,686.5000083968043A6,6,0,1,1,433.5000137761235,686.5000083968043A6,6,0,1,1,445.5000137761235,686.5000083968043"></path><path id="kity_path_460" fill="none" stroke="gray" d="M435.0000137761235,686.5000083968043L444.0000137761235,686.5000083968043"></path></g><path id="node_outline41" fill="none" stroke="none" d="M450.5000143125653,673.5000083968043h87a5,5,0,0,1,5,5v16a5,5,0,0,1,-5,5h-87a5,5,0,0,1,-5,-5v-16a5,5,0,0,1,5,-5z"></path><g id="node_text41" fill="black"><text id="kity_text_195" text-rendering="inherit" font-size="12" dy=".8em" y="678.7000083699822" x="475.5000143125653">视觉大模型</text></g><g id="node_progress14"><path id="kity_path_281" fill="#FFED83" stroke="none" d="M470.0000140964985,687.0000084042549A9,9,0,1,1,452.0000140964985,687.0000084042549A9,9,0,1,1,470.0000140964985,687.0000084042549"></path><path id="kity_path_282" fill="#43BC00" stroke="none" d="M461.0000140964985,687.0000084042549L470.0000140964985,687.0000084042549A9,9,0,0,1,452.0000140964985,687.0000084042549A9,9,0,0,1,470.0000140964985,687.0000084042549L461.0000140964985,687.0000084042549z"></path><path id="kity_path_283" fill="#8E8E8E" stroke="none" d="M461.0000139474869,680.0000082552433c4.418,0,8,3.582,8,8h1c0,-5.523,-3.477,-10,-9,-10S452.0000139474869,682.4770082552433,452.0000139474869,688.0000082552433h1C453.0000139474869,683.5820082552433,456.58201394748687,680.0000082552433,461.0000139474869,680.0000082552433z"></path><path id="kity_path_285" fill="#EEE" stroke="none" d="M466.8120139474869,684.8960082552433l-6.75,6.75l-4.5,-4.5L457.2500139474869,685.4590082552432l2.812,2.803l5.062,-5.053L466.8120139474869,684.8960082552433z"></path><path id="kity_path_284" fill="url(#kity_linearGradient_17)" stroke="none" d="M461.0000139474869,677.0000082552433C455.47701394748685,677.0000082552433,451.0000139474869,681.4770082552433,451.0000139474869,687.0000082552433c0,5.523,4.477,10,10,10s10,-4.477,10,-10C471.0000139474869,681.4770082552433,466.5230139474869,677.0000082552433,461.0000139474869,677.0000082552433zM461.0000139474869,695.0000082552433c-4.418,0,-8,-3.582,-8,-8s3.582,-8,8,-8s8,3.582,8,8S465.4180139474869,695.0000082552433,461.0000139474869,695.0000082552433z"></path></g></g><g id="minder_node41"><g id="node_expander37" style="cursor: pointer;" display="none"><path id="kity_path_450" fill="white" stroke="gray" d="M558.5000154599547,652.5000078901649A6,6,0,1,1,546.5000154599547,652.5000078901649A6,6,0,1,1,558.5000154599547,652.5000078901649"></path><path id="kity_path_451" fill="none" stroke="gray"></path></g><path id="node_outline38" fill="none" stroke="none" d="M563.5000159963965,639.5000078901649h116a5,5,0,0,1,5,5v16a5,5,0,0,1,-5,5h-116a5,5,0,0,1,-5,-5v-16a5,5,0,0,1,5,-5z"></path><g id="node_text38" fill="black"><text id="kity_text_189" text-rendering="inherit" font-size="12" dy=".8em" y="644.7000078633428" x="588.5000159963965">视觉大模型-分类</text></g><g id="node_progress11"><path id="kity_path_263" fill="#FFED83" stroke="none" d="M583.0000157803297,653.0000078976154A9,9,0,1,1,565.0000157803297,653.0000078976154A9,9,0,1,1,583.0000157803297,653.0000078976154"></path><path id="kity_path_264" fill="#43BC00" stroke="none" d="M574.0000157803297,653.0000078976154L583.0000157803297,653.0000078976154A9,9,0,0,1,565.0000157803297,653.0000078976154A9,9,0,0,1,583.0000157803297,653.0000078976154L574.0000157803297,653.0000078976154z"></path><path id="kity_path_265" fill="#8E8E8E" stroke="none" d="M574.0000156313181,646.0000077486038c4.418,0,8,3.582,8,8h1c0,-5.523,-3.477,-10,-9,-10S565.0000156313181,648.4770077486038,565.0000156313181,654.0000077486038h1C566.0000156313181,649.5820077486038,569.5820156313181,646.0000077486038,574.0000156313181,646.0000077486038z"></path><path id="kity_path_267" fill="#EEE" stroke="none" d="M579.8120156313181,650.8960077486038l-6.75,6.75l-4.5,-4.5L570.2500156313181,651.4590077486038l2.812,2.803l5.062,-5.053L579.8120156313181,650.8960077486038z"></path><path id="kity_path_266" fill="url(#kity_linearGradient_17)" stroke="none" d="M574.0000156313181,643.0000077486038C568.4770156313181,643.0000077486038,564.0000156313181,647.4770077486038,564.0000156313181,653.0000077486038c0,5.523,4.477,10,10,10s10,-4.477,10,-10C584.0000156313181,647.4770077486038,579.5230156313181,643.0000077486038,574.0000156313181,643.0000077486038zM574.0000156313181,661.0000077486038c-4.418,0,-8,-3.582,-8,-8s3.582,-8,8,-8s8,3.582,8,8S578.4180156313181,661.0000077486038,574.0000156313181,661.0000077486038z"></path></g></g><g id="minder_node42"><g id="node_expander38" style="cursor: pointer;" display="none"><path id="kity_path_453" fill="white" stroke="gray" d="M558.5000154599547,686.5000083968043A6,6,0,1,1,546.5000154599547,686.5000083968043A6,6,0,1,1,558.5000154599547,686.5000083968043"></path><path id="kity_path_454" fill="none" stroke="gray"></path></g><path id="node_outline39" fill="none" stroke="none" d="M563.5000159963965,673.5000083968043h115a5,5,0,0,1,5,5v16a5,5,0,0,1,-5,5h-115a5,5,0,0,1,-5,-5v-16a5,5,0,0,1,5,-5z" stroke-width="3"></path><g id="node_text39" fill="black"><text id="kity_text_191" text-rendering="inherit" font-size="12" dy=".8em" y="678.7000083699822" x="588.5000159963965">视觉大模型-检测</text></g><g id="node_progress12"><path id="kity_path_269" fill="#FFED83" stroke="none" d="M583.0000157803297,687.0000084042549A9,9,0,1,1,565.0000157803297,687.0000084042549A9,9,0,1,1,583.0000157803297,687.0000084042549"></path><path id="kity_path_270" fill="#43BC00" stroke="none" d="M574.0000157803297,687.0000084042549L583.0000157803297,687.0000084042549A9,9,0,0,1,565.0000157803297,687.0000084042549A9,9,0,0,1,583.0000157803297,687.0000084042549L574.0000157803297,687.0000084042549z"></path><path id="kity_path_271" fill="#8E8E8E" stroke="none" d="M574.0000156313181,680.0000082552433c4.418,0,8,3.582,8,8h1c0,-5.523,-3.477,-10,-9,-10S565.0000156313181,682.4770082552433,565.0000156313181,688.0000082552433h1C566.0000156313181,683.5820082552433,569.5820156313181,680.0000082552433,574.0000156313181,680.0000082552433z"></path><path id="kity_path_273" fill="#EEE" stroke="none" d="M579.8120156313181,684.8960082552433l-6.75,6.75l-4.5,-4.5L570.2500156313181,685.4590082552432l2.812,2.803l5.062,-5.053L579.8120156313181,684.8960082552433z"></path><path id="kity_path_272" fill="url(#kity_linearGradient_17)" stroke="none" d="M574.0000156313181,677.0000082552433C568.4770156313181,677.0000082552433,564.0000156313181,681.4770082552433,564.0000156313181,687.0000082552433c0,5.523,4.477,10,10,10s10,-4.477,10,-10C584.0000156313181,681.4770082552433,579.5230156313181,677.0000082552433,574.0000156313181,677.0000082552433zM574.0000156313181,695.0000082552433c-4.418,0,-8,-3.582,-8,-8s3.582,-8,8,-8s8,3.582,8,8S578.4180156313181,695.0000082552433,574.0000156313181,695.0000082552433z"></path></g></g><g id="minder_node43"><g id="node_expander39" style="cursor: pointer;" display="none"><path id="kity_path_456" fill="white" stroke="gray" d="M558.5000154599547,720.5000089034438A6,6,0,1,1,546.5000154599547,720.5000089034438A6,6,0,1,1,558.5000154599547,720.5000089034438"></path><path id="kity_path_457" fill="none" stroke="gray"></path></g><path id="node_outline40" fill="none" stroke="none" d="M563.5000159963965,707.5000089034438h115a5,5,0,0,1,5,5v16a5,5,0,0,1,-5,5h-115a5,5,0,0,1,-5,-5v-16a5,5,0,0,1,5,-5z" stroke-width="3"></path><g id="node_text40" fill="black"><text id="kity_text_193" text-rendering="inherit" font-size="12" dy=".8em" y="712.7000088766217" x="588.5000159963965">视觉大模型-分割</text></g><g id="node_progress13"><path id="kity_path_275" fill="#FFED83" stroke="none" d="M583.0000157803297,721.0000089108944A9,9,0,1,1,565.0000157803297,721.0000089108944A9,9,0,1,1,583.0000157803297,721.0000089108944"></path><path id="kity_path_276" fill="#43BC00" stroke="none" d="M574.0000157803297,721.0000089108944L583.0000157803297,721.0000089108944A9,9,0,0,1,565.0000157803297,721.0000089108944A9,9,0,0,1,583.0000157803297,721.0000089108944L574.0000157803297,721.0000089108944z"></path><path id="kity_path_277" fill="#8E8E8E" stroke="none" d="M574.0000156313181,714.0000087618828c4.418,0,8,3.582,8,8h1c0,-5.523,-3.477,-10,-9,-10S565.0000156313181,716.4770087618828,565.0000156313181,722.0000087618828h1C566.0000156313181,717.5820087618828,569.5820156313181,714.0000087618828,574.0000156313181,714.0000087618828z"></path><path id="kity_path_279" fill="#EEE" stroke="none" d="M579.8120156313181,718.8960087618827l-6.75,6.75l-4.5,-4.5L570.2500156313181,719.4590087618827l2.812,2.803l5.062,-5.053L579.8120156313181,718.8960087618827z"></path><path id="kity_path_278" fill="url(#kity_linearGradient_17)" stroke="none" d="M574.0000156313181,711.0000087618828C568.4770156313181,711.0000087618828,564.0000156313181,715.4770087618828,564.0000156313181,721.0000087618828c0,5.523,4.477,10,10,10s10,-4.477,10,-10C584.0000156313181,715.4770087618828,579.5230156313181,711.0000087618828,574.0000156313181,711.0000087618828zM574.0000156313181,729.0000087618828c-4.418,0,-8,-3.582,-8,-8s3.582,-8,8,-8s8,3.582,8,8S578.4180156313181,729.0000087618828,574.0000156313181,729.0000087618828z"></path></g></g><g id="minder_node44"><g id="node_expander41" style="cursor: pointer;" display="none"><path id="kity_path_462" fill="white" stroke="gray" d="M445.5000137761235,754.5000094100833A6,6,0,1,1,433.5000137761235,754.5000094100833A6,6,0,1,1,445.5000137761235,754.5000094100833"></path><path id="kity_path_463" fill="none" stroke="gray"></path></g><path id="node_outline42" fill="none" stroke="none" d="M450.5000143125653,741.5000094100833h98a5,5,0,0,1,5,5v16a5,5,0,0,1,-5,5h-98a5,5,0,0,1,-5,-5v-16a5,5,0,0,1,5,-5z"></path><g id="node_text42" fill="black"><text id="kity_text_197" text-rendering="inherit" font-size="12" dy=".8em" y="746.7000093832612" x="475.5000143125653">多模态大模型</text></g><g id="node_progress15"><path id="kity_path_287" fill="#FFED83" stroke="none" d="M470.0000140964985,755.0000094175339A9,9,0,1,1,452.0000140964985,755.0000094175339A9,9,0,1,1,470.0000140964985,755.0000094175339"></path><path id="kity_path_288" fill="#43BC00" stroke="none" d="M461.0000140964985,755.0000094175339"></path><path id="kity_path_289" fill="#8E8E8E" stroke="none" d="M461.0000139474869,748.0000092685223c4.418,0,8,3.582,8,8h1c0,-5.523,-3.477,-10,-9,-10S452.0000139474869,750.4770092685222,452.0000139474869,756.0000092685223h1C453.0000139474869,751.5820092685223,456.58201394748687,748.0000092685223,461.0000139474869,748.0000092685223z"></path><path id="kity_path_291" fill="#EEE" stroke="none" d="M476.8120140964985,762.8960094175338l-6.75,6.75l-4.5,-4.5L467.2500140964985,763.4590094175338l2.812,2.803l5.062,-5.053L476.8120140964985,762.8960094175338z" display="none"></path><path id="kity_path_290" fill="url(#kity_linearGradient_17)" stroke="none" d="M461.0000139474869,745.0000092685223C455.47701394748685,745.0000092685223,451.0000139474869,749.4770092685222,451.0000139474869,755.0000092685223c0,5.523,4.477,10,10,10s10,-4.477,10,-10C471.0000139474869,749.4770092685222,466.5230139474869,745.0000092685223,461.0000139474869,745.0000092685223zM461.0000139474869,763.0000092685223c-4.418,0,-8,-3.582,-8,-8s3.582,-8,8,-8s8,3.582,8,8S465.4180139474869,763.0000092685223,461.0000139474869,763.0000092685223z"></path></g></g></g></g></svg>